<svg viewBox="0 0 751 131" fill="none" xmlns="http://www.w3.org/2000/svg"><path d="M50.104 58.744c0 2.237-.484 4.433-1.452 6.57a41.026 41.026 0 0 1-4.075 7.037 3.1 3.1 0 0 1-.22.273l1.908 2.371a.499.499 0 0 1 .037.575 17.353 17.353 0 0 1-3.183 3.682c-1.934 1.657-3.833 2.383-3.913 2.413a.501.501 0 0 1-.508-.094l-1.649-1.457a.503.503 0 0 1-.099-.12c-1.45.745-4.15 1.745-8.593 2.106-3.935.32-7.162-.179-9.59-1.48-.13-.069-.343-.172-.573-.283-.393-.19-.8-.388-1.023-.523-.219-.134-.471-.28-.75-.442-2.172-1.254-6.212-3.588-9.292-8.922-2.61-4.52-2.88-6.77-3.12-8.754-.143-1.18-.266-2.2-.88-3.571-1.563-3.49-2.841-4.188-2.854-4.194a.513.513 0 0 1-.26-.326.501.501 0 0 1 .07-.407c.253-.366 1.58-2.191 2.863-2.211.621-.01 1.047.206 1.357.363.318.161.326.156.417.088.097-.074.15-.207.23-.418.19-.504.476-1.265 1.948-1.3 1.173-.029 1.828.59 2.302 1.093.497-.995 1.852-3.546 3.627-5.57 1.146-1.306 2.487-2.331 3.409-2.961.704-.48 1.168-.77 1.485-.936-.35-.644-.5-1.083-.616-1.423-.137-.4-.213-.62-.534-.966-1.067-1.15-.228-3.03-.07-3.257a.537.537 0 0 1 .382-.229c.287-.032.465.132.788.43.536.495 1.652 1.525 3.545 2.02 1.696.443 3.668.35 5.407.27 1.098-.053 2.135-.101 2.955-.002 2.68.323 8.257.995 12.842 5.106a25.577 25.577 0 0 1 5.45 6.985c.033.044.059.094.076.146.325.63.615 1.264.866 1.896.86 2.168 1.29 4.314 1.29 6.422Zm-1.284 2.749c.701-3.74-.139-7.38-1.744-10.554-.448-.22-1.948-.857-4.216-.81-2.672.056-3.516.52-3.524.524a.506.506 0 0 1-.683-.176.495.495 0 0 1 .159-.677c.099-.063 1.052-.61 4.027-.671 1.476-.03 2.657.2 3.487.45a24.297 24.297 0 0 0-4.573-5.539 16.876 16.876 0 0 0-2.687-1.964c-.448.183-1.743.595-3.918.371-2.532-.26-3.914-.356-3.927-.357a.5.5 0 1 1 .069-.998c.014 0 1.409.097 3.961.36 1.116.114 1.962.045 2.545-.06-3.276-1.6-6.507-1.99-8.336-2.21-.736-.088-1.733-.042-2.787.008-1.812.085-3.864.181-5.708-.301-1.972-.515-3.18-1.53-3.823-2.116-.122.466-.186 1.124.167 1.503.465.502.596.882.746 1.322.143.417.32.934.878 1.835.514.831 1.189.85 2.247.814.7-.024 1.494-.051 2.195.357 1.227.714.945 1.584.76 2.159-.101.311-.189.582-.123.864.216.027.823-.158 1.274-.296 1.037-.315 2.456-.748 3.889-.514.8.131 1.29.371 1.54.755.294.448.171.926.072 1.309-.13.504-.118.602.092.746.802.554 1.535.709 2.548.923.427.09.912.193 1.456.339.851.227 1.446.664 1.77 1.298.49.963.355 2.351-.426 4.366a12.24 12.24 0 0 0-.82 4.241v.016c0 .435.204.828.521 1.26 2.773 2.889 4.338 6.07 4.48 9.206.027.606.004 1.244-.055 1.89.177.705.722 1.13 1.243 1.303.649.215 1.559.144 2.168-.703a40.013 40.013 0 0 0 3.975-6.864c.33-.727.592-1.455.795-2.18-.242-.319-1.416-1.798-3.442-3.162-.24.106-1.686.722-2.967.796-.639.037-1.46.059-1.746-.048l.353-.937s-.012-.007-.042-.014c.012.003.295.063 1.377 0 .672-.04 1.43-.265 1.96-.454-2.64-1.521-3.581-1.745-3.59-1.747a.503.503 0 0 1-.383-.594.498.498 0 0 1 .587-.386c.109.022 1.15.265 4.102 1.984a16.674 16.674 0 0 1 4.077 3.333Zm-9.694 19.12c.572-.254 1.96-.937 3.341-2.12 1.38-1.183 2.388-2.564 2.789-3.154l-1.508-1.874c-.527.686-1.384 1.787-1.99 2.49a22.862 22.862 0 0 1-3.512 3.25.524.524 0 0 1-.1.057c-.076.058-.178.13-.305.215l1.285 1.136Zm-.103-3.33a20.592 20.592 0 0 0 1.976-1.98c.404-.47.938-1.14 1.4-1.733a2.989 2.989 0 0 1-1.12-.152 2.943 2.943 0 0 1-1.133-.683c-.29 1.725-.754 3.382-1.123 4.548Zm-1.453 1.158c.25-.685 1.454-4.093 1.77-7.227a3.07 3.07 0 0 1-.049-.606 13.934 13.934 0 0 0-.207-2.746c-.574-3.138-2.294-5.183-3.322-6.405a22.536 22.536 0 0 1-.478-.58 10.11 10.11 0 0 1-.127-.165 24.719 24.719 0 0 0-2.846-2.507c-4.191-3.176-6.196-2.978-7.159-2.883l-.14.013c-.249.023-.7.162-1.177.31-1.241.384-2.941.91-4.195.413-1.158-.459-1.262-1.627-1.363-2.758-.072-.81-.147-1.648-.58-2.302-.93-1.4-3.323-.694-4.59-.057-.5.252-.877.563-1.209.837-.569.47-1.157.955-2.045.733-.567-.142-.933-.535-1.287-.914-.45-.48-.838-.896-1.641-.877-.796.02-.88.244-1.034.652-.103.274-.231.614-.567.866-.597.448-1.103.192-1.472.005-.265-.134-.515-.26-.888-.255-.47.007-1.23.732-1.758 1.385.596.509 1.654 1.698 2.838 4.343.676 1.51.814 2.652.96 3.86.228 1.89.486 4.031 2.993 8.374 2.946 5.102 6.688 7.264 8.925 8.556.288.166.547.316.772.453.181.11.6.314.937.477.245.118.47.228.61.302 2.09 1.12 4.855 1.596 8.226 1.418-2.525-.75-6.281-2.28-9.771-5.308-5.85-5.077-9.043-14.94-9.176-15.358a.5.5 0 0 1 .955-.304c.03.095 2.933 9.061 8.062 14.148.325-.986.977-3.275.612-4.867-.15-.654-.292-1.22-.417-1.72-.31-1.234-.535-2.127-.576-3.177v-.02a.5.5 0 0 1 1.001-.02c.035.902.23 1.716.505 2.807l.937-.975a.502.502 0 0 1 .723.693l-1.375 1.43c.058.24.118.492.18.76.496 2.178-.57 5.245-.787 5.835l.013.013a24.696 24.696 0 0 0 5.643 3.652c-.727-1.334-1.665-3.513-.972-4.9.46-.92 1.288-1.62 2.088-2.299.876-.741 1.702-1.441 2.013-2.358a.501.501 0 0 1 .95.32c-.4 1.18-1.373 2.005-2.314 2.802-.342.289-.675.571-.972.862.65.21 1.882.56 2.888.57 1.431.017 3.459-.697 3.479-.704a.501.501 0 0 1 .336.943c-.09.032-2.215.781-3.826.763-1.416-.016-3.123-.59-3.573-.75-.064.097-.12.197-.172.299-.623 1.249.976 4.117 1.586 5.024.023.034.041.07.055.108 2.852 1.13 4.967 1.405 5.004 1.41l.014.001c4.536-.69 6.565-2.07 6.99-2.395Zm-3.162-19.82a13.27 13.27 0 0 1 .884-4.43c.652-1.683.809-2.878.466-3.55-.19-.376-.562-.632-1.134-.786a25.876 25.876 0 0 0-1.404-.326c-1.043-.22-1.943-.41-2.91-1.078-.818-.564-.615-1.35-.494-1.82.053-.203.112-.433.06-.512-.021-.032-.162-.199-.863-.314-1.202-.196-2.44.18-3.435.484-.922.281-1.59.484-2.087.207a.916.916 0 0 1-.442-.588c-.151-.576.005-1.062.132-1.453.176-.547.22-.678-.311-.987-.451-.262-1.036-.242-1.655-.22-.953.032-2.123.073-2.963-1.038-.66.364-2.908 1.687-4.67 3.694-1.852 2.112-3.269 4.915-3.6 5.596.037.016.076.03.115.04.365.091.583-.056 1.163-.534.354-.293.795-.657 1.396-.959 1.94-.976 4.643-1.458 5.875.398.575.865.665 1.875.744 2.766.096 1.077.178 1.696.734 1.917.926.367 2.43-.1 3.53-.44.552-.17 1.029-.318 1.383-.35l.132-.013c1.09-.107 3.359-.33 7.863 3.082.522.397 1.019.801 1.49 1.214ZM79.942 107.332c0-2.237.484-4.433 1.451-6.57a41.03 41.03 0 0 1 4.075-7.037c.07-.096.143-.187.221-.273l-1.908-2.371a.499.499 0 0 1-.037-.575 17.351 17.351 0 0 1 3.183-3.682c1.933-1.657 3.832-2.383 3.912-2.413a.501.501 0 0 1 .51.094l1.647 1.457c.04.036.074.076.1.12 1.45-.745 4.149-1.745 8.593-2.106 3.935-.319 7.161.179 9.59 1.48.13.069.343.172.573.283.393.19.8.388 1.022.524.219.133.472.28.751.44 2.171 1.255 6.212 3.59 9.291 8.923 2.61 4.52 2.881 6.769 3.121 8.754.142 1.18.265 2.199.88 3.571 1.562 3.491 2.841 4.188 2.854 4.194a.516.516 0 0 1 .259.327.499.499 0 0 1-.07.406c-.253.366-1.58 2.191-2.862 2.211-.622.01-1.047-.206-1.357-.363-.319-.161-.326-.156-.417-.088-.097.074-.151.207-.23.418-.19.504-.476 1.265-1.949 1.301-1.172.028-1.827-.59-2.302-1.094-.496.995-1.851 3.546-3.626 5.569-1.147 1.307-2.487 2.332-3.409 2.962-.704.481-1.168.77-1.486.936.35.644.5 1.083.617 1.423.137.4.212.62.533.966 1.068 1.15.229 3.03.071 3.257a.533.533 0 0 1-.383.229c-.287.032-.465-.132-.787-.43-.536-.495-1.652-1.525-3.545-2.02-1.697-.443-3.668-.351-5.407-.269-1.099.052-2.136.1-2.955.001-2.68-.323-8.257-.995-12.842-5.106a25.582 25.582 0 0 1-5.45-6.985.493.493 0 0 1-.076-.146 21.073 21.073 0 0 1-.867-1.896c-.86-2.168-1.29-4.314-1.29-6.422Zm1.283-2.749c-.7 3.74.14 7.381 1.744 10.554.449.22 1.949.857 4.216.809 2.673-.055 3.517-.518 3.525-.523a.506.506 0 0 1 .682.176.496.496 0 0 1-.158.678c-.1.062-1.052.608-4.028.67-1.476.031-2.656-.2-3.487-.451a24.293 24.293 0 0 0 4.574 5.54c.865.776 1.77 1.423 2.686 1.964.449-.183 1.744-.595 3.918-.371 2.533.26 3.914.356 3.928.357a.5.5 0 1 1-.069.999c-.014-.001-1.41-.098-3.962-.361-1.115-.114-1.962-.045-2.545.06 3.276 1.6 6.508 1.989 8.336 2.21.737.088 1.733.042 2.788-.008 1.811-.085 3.864-.181 5.708.301 1.972.515 3.18 1.53 3.823 2.116.121-.466.186-1.124-.167-1.503-.466-.502-.596-.882-.747-1.322-.142-.417-.32-.934-.877-1.835-.515-.831-1.189-.851-2.248-.814-.7.024-1.493.051-2.194-.357-1.227-.714-.945-1.584-.76-2.159.101-.311.189-.582.123-.864-.217-.027-.823.158-1.274.296-1.037.315-2.456.748-3.889.514-.8-.131-1.29-.371-1.54-.755-.294-.448-.171-.926-.072-1.309.13-.503.118-.602-.092-.746-.803-.554-1.535-.709-2.549-.923-.427-.09-.911-.193-1.456-.339-.85-.227-1.446-.664-1.768-1.298-.491-.963-.356-2.351.424-4.366.658-1.698.81-3.244.82-4.241v-.016c0-.435-.203-.828-.52-1.259-2.773-2.89-4.338-6.072-4.48-9.207a13.904 13.904 0 0 1 .055-1.89c-.177-.705-.722-1.13-1.243-1.303-.649-.215-1.559-.144-2.168.703a40.022 40.022 0 0 0-3.975 6.864 15.238 15.238 0 0 0-.795 2.179c.242.32 1.416 1.799 3.442 3.163.239-.106 1.685-.722 2.966-.796.64-.037 1.46-.059 1.747.048l-.353.937s.011.007.041.014c-.011-.003-.294-.063-1.376 0-.673.039-1.43.265-1.96.454 2.64 1.522 3.58 1.745 3.59 1.747a.504.504 0 0 1 .382.594.498.498 0 0 1-.586.386c-.11-.022-1.15-.265-4.102-1.984a16.662 16.662 0 0 1-4.078-3.333Zm9.695-19.12c-.573.255-1.96.938-3.341 2.12-1.381 1.183-2.388 2.564-2.79 3.154l1.509 1.874c.527-.686 1.384-1.787 1.989-2.49a22.854 22.854 0 0 1 3.513-3.25.518.518 0 0 1 .1-.057c.076-.058.177-.13.305-.215l-1.285-1.136Zm.103 3.33a20.602 20.602 0 0 0-1.976 1.98 52.51 52.51 0 0 0-1.4 1.733 2.99 2.99 0 0 1 1.12.152c.44.146.823.382 1.132.683.29-1.725.755-3.382 1.124-4.548Zm1.453-1.158c-.251.685-1.454 4.093-1.77 7.227.036.196.052.4.048.606a13.94 13.94 0 0 0 .207 2.746c.575 3.138 2.295 5.183 3.323 6.405a22.345 22.345 0 0 1 .605.745 24.6 24.6 0 0 0 2.846 2.507c4.191 3.176 6.195 2.978 7.158 2.883l.14-.013c.249-.022.701-.162 1.178-.31 1.241-.384 2.941-.911 4.195-.413 1.158.459 1.262 1.627 1.363 2.758.072.81.147 1.648.58 2.302.93 1.4 3.323.694 4.589.057.501-.252.877-.563 1.209-.837.569-.469 1.158-.955 2.045-.733.567.142.934.535 1.288.914.449.481.838.896 1.641.877.796-.019.88-.244 1.034-.652.103-.274.231-.614.566-.866.598-.448 1.103-.192 1.473-.005.264.134.514.261.888.255.469-.007 1.23-.732 1.758-1.385-.596-.509-1.654-1.698-2.838-4.343-.676-1.51-.814-2.652-.96-3.86-.228-1.89-.486-4.031-2.994-8.374-2.945-5.102-6.688-7.264-8.925-8.556-.287-.166-.547-.316-.772-.453-.18-.11-.6-.314-.937-.477-.244-.118-.47-.228-.609-.302-2.091-1.12-4.856-1.596-8.227-1.418 2.526.75 6.282 2.28 9.772 5.308 5.85 5.077 9.043 14.94 9.176 15.358a.501.501 0 0 1-.955.304c-.03-.095-2.934-9.061-8.063-14.148-.325.986-.976 3.275-.611 4.867.149.654.291 1.22.417 1.72.311 1.234.535 2.127.576 3.177v.02a.501.501 0 0 1-1.001.019c-.036-.901-.231-1.715-.505-2.806l-.937.975a.5.5 0 1 1-.723-.693l1.374-1.43c-.057-.24-.118-.492-.179-.76-.496-2.178.569-5.245.787-5.835a24.714 24.714 0 0 0-5.656-3.665c.727 1.334 1.665 3.513.972 4.9-.46.92-1.288 1.62-2.089 2.3-.875.74-1.702 1.44-2.012 2.357a.502.502 0 0 1-.95-.32c.4-1.18 1.373-2.005 2.314-2.801.342-.29.675-.572.972-.862-.651-.21-1.882-.56-2.888-.572-1.432-.016-3.459.698-3.48.705a.501.501 0 0 1-.335-.943c.089-.032 2.214-.781 3.826-.763 1.415.016 3.122.59 3.573.75.063-.097.121-.197.172-.298.623-1.25-.977-4.118-1.586-5.025a.478.478 0 0 1-.055-.108c-2.852-1.13-4.967-1.405-5.004-1.41l-.014-.001c-4.536.69-6.565 2.07-6.99 2.395Zm3.162 19.82a13.267 13.267 0 0 1-.884 4.429c-.653 1.684-.81 2.879-.466 3.552.19.375.561.631 1.134.785.519.138.969.234 1.404.326 1.042.22 1.943.41 2.91 1.078.818.564.615 1.35.493 1.82-.052.203-.111.433-.059.512.021.032.162.199.863.314 1.202.196 2.44-.181 3.434-.484.923-.281 1.59-.484 2.088-.207a.922.922 0 0 1 .442.588c.151.576-.006 1.062-.132 1.453-.176.547-.219.678.311.987.451.262 1.036.242 1.655.221.953-.033 2.123-.074 2.963 1.037.659-.363 2.908-1.687 4.669-3.694 1.853-2.112 3.27-4.915 3.601-5.596a.825.825 0 0 0-.115-.04c-.365-.091-.583.056-1.163.534-.354.293-.796.657-1.396.959-1.94.976-4.643 1.458-5.876-.398-.574-.865-.664-1.875-.744-2.766-.096-1.077-.177-1.696-.734-1.917-.925-.367-2.43.099-3.529.439-.552.171-1.029.319-1.384.351l-.131.013c-1.091.107-3.359.33-7.863-3.082a27.31 27.31 0 0 1-1.49-1.214ZM96.635 50.104c-2.237 0-4.432-.484-6.57-1.452a41.024 41.024 0 0 1-7.037-4.075 3.096 3.096 0 0 1-.273-.22l-2.37 1.908a.499.499 0 0 1-.576.037 17.351 17.351 0 0 1-3.682-3.183c-1.656-1.934-2.382-3.833-2.412-3.912a.502.502 0 0 1 .093-.51l1.457-1.648a.504.504 0 0 1 .12-.099c-.745-1.45-1.745-4.15-2.106-8.593-.319-3.935.18-7.161 1.48-9.59.07-.13.172-.343.283-.573.191-.393.388-.8.524-1.023.134-.219.28-.47.441-.75 1.254-2.172 3.589-6.212 8.922-9.292 4.52-2.61 6.77-2.88 8.754-3.12 1.18-.142 2.2-.266 3.571-.88 3.491-1.563 4.188-2.841 4.195-2.854a.512.512 0 0 1 .733-.19c.365.254 2.191 1.58 2.211 2.863.009.621-.206 1.047-.364 1.357-.161.319-.155.326-.087.417.073.097.206.15.417.23.504.19 1.266.476 1.301 1.948.028 1.173-.59 1.828-1.093 2.302.994.497 3.545 1.852 5.569 3.627 1.307 1.147 2.332 2.487 2.962 3.41.48.703.77 1.167.935 1.484a8.39 8.39 0 0 1 1.424-.616c.399-.137.619-.212.965-.533 1.151-1.068 3.03-.229 3.258-.072a.537.537 0 0 1 .228.384c.032.287-.132.464-.43.787-.495.536-1.525 1.652-2.02 3.545-.443 1.696-.35 3.668-.269 5.407.052 1.098.1 2.135.002 2.955-.323 2.68-.996 8.257-5.107 12.842a25.561 25.561 0 0 1-6.984 5.45.503.503 0 0 1-.147.076c-.629.325-1.263.616-1.896.866-2.168.86-4.314 1.29-6.422 1.29Zm-2.748-1.283c3.74.7 7.38-.14 10.554-1.745.22-.448.856-1.948.809-4.215-.056-2.673-.519-3.517-.523-3.525a.506.506 0 0 1 .175-.683.495.495 0 0 1 .678.159c.062.099.609 1.052.671 4.027.03 1.477-.201 2.657-.451 3.487a24.287 24.287 0 0 0 5.539-4.573 16.929 16.929 0 0 0 1.965-2.687c-.183-.448-.596-1.743-.372-3.918.261-2.532.357-3.913.358-3.927a.5.5 0 1 1 .998.069c-.001.014-.098 1.41-.36 3.961-.115 1.116-.046 1.962.059 2.546 1.6-3.277 1.99-6.508 2.21-8.336.089-.737.042-1.733-.007-2.788-.085-1.811-.182-3.864.3-5.708.516-1.972 1.531-3.18 2.117-3.823-.466-.122-1.124-.186-1.504.167-.502.465-.882.596-1.322.747-.416.142-.934.32-1.834.877-.832.515-.851 1.189-.815 2.247.025.7.052 1.494-.357 2.195-.714 1.227-1.583.945-2.158.76-.312-.101-.583-.189-.865-.123-.026.216.159.823.296 1.274.316 1.037.748 2.456.514 3.889-.131.8-.371 1.29-.755 1.54-.448.294-.925.171-1.308.072-.504-.13-.602-.118-.747.092-.554.802-.708 1.535-.923 2.548-.09.428-.192.912-.338 1.456-.228.851-.664 1.447-1.298 1.77-.964.49-2.351.355-4.366-.426a12.243 12.243 0 0 0-4.242-.82h-.015c-.435 0-.828.204-1.26.522-2.89 2.772-6.071 4.337-9.207 4.479a13.92 13.92 0 0 1-1.89-.055c-.705.177-1.13.722-1.302 1.243-.216.649-.145 1.559.702 2.168a40.014 40.014 0 0 0 6.865 3.975 15.18 15.18 0 0 0 2.179.795c.32-.242 1.798-1.416 3.162-3.442-.105-.24-.721-1.686-.796-2.967-.037-.639-.058-1.46.049-1.746l.937.353s.006-.011.013-.042c-.003.012-.062.295 0 1.377.04.672.265 1.43.454 1.96 1.522-2.64 1.746-3.581 1.748-3.59a.503.503 0 0 1 .593-.383c.268.058.44.318.386.587-.022.109-.264 1.15-1.984 4.102a16.674 16.674 0 0 1-3.332 4.078Zm-19.12-9.695c.254.572.937 1.96 2.12 3.341 1.183 1.38 2.563 2.388 3.154 2.789l1.873-1.508c-.686-.527-1.787-1.384-2.49-1.989a22.859 22.859 0 0 1-3.25-3.513.518.518 0 0 1-.057-.1 6.06 6.06 0 0 1-.215-.305l-1.136 1.285Zm3.33-.103a20.579 20.579 0 0 0 1.98 1.976c.47.404 1.14.938 1.733 1.4a2.99 2.99 0 0 1 .151-1.12c.147-.44.382-.824.683-1.133-1.724-.289-3.382-.754-4.547-1.123Zm-1.159-1.453c.686.251 4.093 1.454 7.228 1.77.195-.036.399-.052.606-.049.967.018 1.891-.05 2.745-.207 3.139-.574 5.184-2.294 6.406-3.322.215-.181.408-.343.58-.478.054-.043.11-.085.165-.127a24.71 24.71 0 0 0 2.506-2.846c3.176-4.191 2.979-6.195 2.884-7.158l-.014-.14c-.022-.25-.162-.7-.31-1.178-.384-1.241-.91-2.941-.413-4.195.459-1.158 1.628-1.262 2.758-1.363.811-.072 1.649-.147 2.302-.58 1.4-.93.695-3.323.057-4.59-.252-.5-.562-.877-.836-1.209-.47-.569-.955-1.157-.733-2.045.142-.567.534-.933.913-1.287.481-.45.897-.838.878-1.641-.02-.796-.245-.88-.653-1.034-.273-.103-.613-.23-.865-.567-.449-.597-.192-1.103-.005-1.472.134-.265.26-.515.255-.888-.007-.47-.733-1.23-1.386-1.758-.508.596-1.697 1.654-4.343 2.838-1.51.676-2.651.814-3.86.96-1.89.228-4.03.486-8.374 2.994-5.101 2.945-7.263 6.688-8.555 8.924-.166.288-.316.547-.454.773-.11.18-.314.6-.476.936-.119.245-.229.47-.303.61-1.12 2.09-1.596 4.855-1.417 8.227.749-2.526 2.279-6.282 5.307-9.772 5.077-5.85 14.94-9.043 15.358-9.176a.5.5 0 0 1 .304.955c-.095.03-9.061 2.933-14.147 8.063.985.324 3.274.976 4.866.611.655-.15 1.22-.292 1.72-.417 1.235-.31 2.127-.535 3.177-.576h.02a.5.5 0 0 1 .02 1.001c-.902.035-1.716.23-2.807.505l.976.937a.502.502 0 0 1-.693.723l-1.43-1.375c-.24.058-.493.118-.76.18-2.178.496-5.245-.57-5.836-.787l-.012.014a24.697 24.697 0 0 0-3.653 5.642c1.334-.727 3.513-1.665 4.9-.972.92.46 1.621 1.288 2.3 2.088.74.876 1.44 1.702 2.358 2.013a.501.501 0 0 1-.321.95c-1.18-.4-2.004-1.373-2.801-2.314a18.37 18.37 0 0 0-.862-.972c-.21.65-.56 1.882-.572 2.888-.015 1.431.699 3.459.706 3.479a.501.501 0 0 1-.943.336c-.032-.09-.782-2.215-.764-3.826.016-1.415.59-3.122.75-3.573a3.129 3.129 0 0 0-.298-.172c-1.25-.623-4.118.976-5.025 1.586a.499.499 0 0 1-.107.055c-1.13 2.852-1.405 4.967-1.41 5.004l-.002.014c.69 4.536 2.07 6.565 2.395 6.99Zm19.82-3.162c1.082.026 2.682.207 4.43.884 1.683.652 2.878.809 3.551.466.375-.19.632-.562.785-1.134.139-.519.234-.969.326-1.404.22-1.042.411-1.943 1.079-2.91.563-.818 1.35-.615 1.819-.493.203.052.433.111.512.06.032-.022.199-.163.314-.864.197-1.202-.18-2.44-.483-3.434-.282-.923-.485-1.59-.207-2.088a.913.913 0 0 1 .587-.442c.576-.151 1.062.006 1.453.132.548.176.678.22.987-.31.263-.452.243-1.037.221-1.656-.033-.953-.074-2.123 1.038-2.963-.364-.66-1.687-2.908-3.694-4.67-2.112-1.852-4.916-3.269-5.596-3.6a.696.696 0 0 0-.04.115c-.092.365.055.583.534 1.163.292.354.656.795.958 1.396.977 1.94 1.458 4.643-.397 5.875-.865.575-1.876.665-2.767.744-1.076.096-1.696.178-1.916.735-.367.925.099 2.43.439 3.528.171.553.318 1.03.35 1.385l.013.13c.108 1.091.331 3.36-3.082 7.864-.396.522-.8 1.02-1.213 1.49ZM236.642 0c2.237 0 4.433.484 6.57 1.452a41.021 41.021 0 0 1 7.037 4.075c.096.07.187.143.273.22l2.371-1.908a.5.5 0 0 1 .575-.037c.082.05 2.032 1.256 3.682 3.183 1.657 1.934 2.383 3.833 2.413 3.913a.502.502 0 0 1-.094.509l-1.457 1.648a.5.5 0 0 1-.12.1c.745 1.45 1.745 4.149 2.106 8.592.319 3.935-.179 7.162-1.479 9.59-.07.13-.173.343-.284.573-.191.394-.388.8-.524 1.023-.134.219-.279.471-.441.75-1.254 2.172-3.588 6.213-8.922 9.292-4.52 2.61-6.77 2.88-8.754 3.12-1.18.143-2.199.266-3.571.88-3.491 1.563-4.188 2.841-4.195 2.854a.51.51 0 0 1-.733.19c-.365-.253-2.191-1.58-2.21-2.862-.01-.622.205-1.047.363-1.358.161-.318.155-.326.087-.417-.073-.097-.206-.15-.417-.23-.504-.19-1.266-.476-1.301-1.948-.028-1.173.59-1.827 1.094-2.302-.995-.497-3.546-1.852-5.569-3.627-1.307-1.146-2.332-2.487-2.962-3.409-.481-.703-.77-1.167-.936-1.485-.645.35-1.083.5-1.423.616-.4.137-.62.213-.966.534-1.15 1.067-3.03.228-3.257.071a.536.536 0 0 1-.229-.383c-.032-.287.132-.465.43-.787.495-.537 1.525-1.652 2.02-3.546.443-1.696.351-3.668.269-5.407-.052-1.098-.1-2.135-.001-2.955.323-2.68.995-8.257 5.106-12.841a25.581 25.581 0 0 1 6.985-5.45.497.497 0 0 1 .146-.077c.63-.325 1.263-.615 1.896-.866C232.388.43 234.534 0 236.642 0Zm2.748 1.284c-3.739-.701-7.38.139-10.553 1.744-.22.448-.857 1.948-.809 4.216.055 2.672.518 3.517.523 3.524a.506.506 0 0 1-.176.683.496.496 0 0 1-.678-.159c-.062-.099-.608-1.052-.67-4.027-.031-1.476.2-2.656.451-3.487a24.294 24.294 0 0 0-5.54 4.574 16.856 16.856 0 0 0-1.964 2.686c.183.448.595 1.743.371 3.918-.261 2.533-.356 3.914-.357 3.927a.5.5 0 1 1-.999-.069c.001-.013.098-1.409.36-3.96.115-1.116.046-1.963-.059-2.546-1.6 3.276-1.989 6.507-2.21 8.336-.088.736-.042 1.733.007 2.788.086 1.81.182 3.863-.3 5.708-.515 1.971-1.53 3.18-2.116 3.822.466.122 1.123.186 1.503-.167.502-.465.882-.595 1.322-.746.417-.143.934-.32 1.835-.877.831-.515.851-1.19.814-2.248-.024-.7-.052-1.494.357-2.195.714-1.226 1.584-.944 2.159-.76.311.101.582.19.864.123.027-.216-.158-.823-.296-1.274-.315-1.036-.748-2.456-.514-3.889.131-.8.371-1.29.755-1.54.448-.293.925-.17 1.309-.072.503.13.601.119.746-.092.554-.802.709-1.534.923-2.548.09-.427.193-.911.338-1.456.228-.851.665-1.446 1.299-1.769.963-.49 2.351-.355 4.366.425a12.24 12.24 0 0 0 4.241.82h.016c.435 0 .827-.204 1.259-.521 2.89-2.773 6.072-4.337 9.207-4.48a13.91 13.91 0 0 1 1.89.055c.705-.177 1.13-.722 1.302-1.243.216-.648.145-1.558-.702-2.168a39.972 39.972 0 0 0-6.865-3.975 15.147 15.147 0 0 0-2.179-.794c-.319.241-1.798 1.415-3.162 3.441.106.24.722 1.686.796 2.967.037.639.059 1.46-.048 1.746l-.937-.352s-.007.01-.014.041c.003-.012.063-.295 0-1.377-.039-.672-.265-1.429-.454-1.96-1.522 2.64-1.745 3.582-1.747 3.591a.504.504 0 0 1-.594.382.498.498 0 0 1-.386-.587c.022-.109.265-1.149 1.984-4.101a16.685 16.685 0 0 1 3.332-4.078Zm19.121 9.694a14.248 14.248 0 0 0-2.121-3.34c-1.182-1.382-2.563-2.389-3.154-2.79l-1.873 1.508c.686.528 1.787 1.385 2.489 1.99a22.851 22.851 0 0 1 3.252 3.512.534.534 0 0 1 .056.1c.058.076.131.178.215.305l1.136-1.285Zm-3.33.103a20.646 20.646 0 0 0-1.98-1.975 53.88 53.88 0 0 0-1.733-1.401 2.99 2.99 0 0 1-.152 1.12 2.94 2.94 0 0 1-.683 1.133c1.725.29 3.382.754 4.548 1.123Zm1.158 1.453c-.685-.25-4.093-1.453-7.228-1.77a3.067 3.067 0 0 1-.605.049 13.943 13.943 0 0 0-2.746.207c-3.139.574-5.184 2.294-6.405 3.322-.216.182-.409.343-.581.478a8.138 8.138 0 0 1-.165.127 24.688 24.688 0 0 0-2.506 2.847c-3.176 4.19-2.978 6.195-2.883 7.158l.013.14c.022.249.162.7.31 1.177.384 1.242.911 2.941.413 4.196-.459 1.157-1.628 1.262-2.758 1.362-.81.072-1.649.147-2.302.581-1.4.93-.694 3.322-.057 4.589.252.5.562.877.837 1.209.469.569.955 1.157.733 2.045-.142.567-.535.933-.914 1.288-.481.45-.897.837-.877 1.64.019.796.244.88.652 1.035.273.102.614.23.865.566.449.597.193 1.103.006 1.472-.134.265-.261.515-.255.889.007.469.732 1.23 1.385 1.757.509-.596 1.698-1.654 4.343-2.838 1.51-.676 2.652-.814 3.86-.96 1.889-.227 4.031-.486 8.374-2.993 5.102-2.945 7.264-6.688 8.556-8.925.166-.287.316-.547.453-.772.111-.18.314-.6.477-.937.118-.245.228-.47.302-.61 1.12-2.09 1.596-4.855 1.418-8.226-.75 2.526-2.28 6.281-5.308 9.771-5.077 5.851-14.941 9.044-15.358 9.177a.501.501 0 0 1-.304-.955c.095-.03 9.061-2.934 14.148-8.063-.986-.325-3.275-.976-4.867-.612-.654.15-1.22.292-1.719.418-1.235.31-2.128.535-3.178.576h-.02a.502.502 0 0 1-.019-1.002c.901-.035 1.715-.23 2.806-.504l-.975-.937a.501.501 0 0 1 .693-.724l1.43 1.375c.239-.058.492-.118.76-.18 2.178-.496 5.244.57 5.835.788l.012-.014a24.687 24.687 0 0 0 3.653-5.643c-1.334.727-3.513 1.665-4.899.972-.921-.46-1.622-1.288-2.3-2.088-.741-.875-1.441-1.702-2.358-2.013a.502.502 0 0 1 .321-.949c1.18.4 2.004 1.373 2.8 2.314.29.341.572.675.862.971.21-.65.56-1.882.572-2.887.016-1.432-.698-3.46-.705-3.48a.501.501 0 1 1 .943-.336c.032.09.781 2.215.763 3.827-.016 1.415-.59 3.122-.751 3.572.098.064.197.121.299.172 1.25.624 4.118-.976 5.025-1.586a.493.493 0 0 1 .107-.055c1.131-2.852 1.406-4.967 1.41-5.004l.002-.014c-.69-4.536-2.07-6.565-2.395-6.99Zm-19.82 3.163a13.276 13.276 0 0 1-4.43-.885c-1.683-.652-2.878-.809-3.551-.466-.375.19-.631.562-.785 1.134-.139.52-.234.97-.326 1.405-.22 1.042-.41 1.942-1.078 2.91-.564.817-1.35.614-1.82.493-.203-.052-.433-.112-.512-.06-.032.021-.199.162-.314.864-.196 1.202.181 2.44.484 3.434.281.923.484 1.59.207 2.087a.918.918 0 0 1-.588.442c-.576.152-1.062-.005-1.453-.131-.547-.177-.678-.22-.987.31-.262.451-.242 1.036-.221 1.655.033.953.074 2.124-1.038 2.964.364.659 1.687 2.907 3.694 4.668 2.113 1.854 4.916 3.27 5.597 3.601a.8.8 0 0 0 .04-.115c.091-.365-.056-.583-.534-1.162-.293-.355-.657-.796-.959-1.397-.976-1.94-1.458-4.643.397-5.875.866-.574 1.876-.664 2.767-.744 1.077-.096 1.696-.177 1.917-.734.367-.926-.099-2.43-.439-3.529-.171-.552-.319-1.03-.351-1.384l-.013-.131c-.107-1.091-.331-3.36 3.082-7.863a27.31 27.31 0 0 1 1.214-1.491ZM376.994 50.104c-2.238 0-4.433-.484-6.57-1.452a41.014 41.014 0 0 1-7.037-4.075 3.025 3.025 0 0 1-.273-.22l-2.371 1.908a.5.5 0 0 1-.575.037 17.358 17.358 0 0 1-3.683-3.183c-1.656-1.934-2.382-3.833-2.412-3.912a.5.5 0 0 1 .093-.51l1.458-1.648a.495.495 0 0 1 .119-.099c-.745-1.45-1.745-4.15-2.105-8.593-.319-3.935.178-7.161 1.479-9.59.07-.13.172-.343.284-.573.19-.393.387-.8.523-1.023.134-.219.28-.47.441-.75 1.255-2.172 3.589-6.212 8.923-9.292 4.52-2.61 6.769-2.88 8.753-3.12 1.181-.142 2.2-.266 3.572-.88 3.49-1.563 4.187-2.841 4.194-2.854a.514.514 0 0 1 .326-.259.501.501 0 0 1 .407.07c.366.253 2.191 1.58 2.211 2.862.01.621-.206 1.047-.363 1.357-.162.319-.156.326-.088.417.073.097.206.15.418.23.504.19 1.265.476 1.3 1.948.029 1.173-.59 1.828-1.093 2.302.995.497 3.546 1.852 5.569 3.627 1.307 1.147 2.332 2.487 2.962 3.41.481.703.77 1.167.936 1.484.644-.35 1.082-.5 1.423-.616.4-.137.62-.212.966-.533 1.15-1.068 3.03-.229 3.257-.072a.539.539 0 0 1 .229.384c.031.287-.132.464-.43.787-.496.536-1.526 1.652-2.02 3.545-.443 1.696-.351 3.668-.269 5.407.051 1.098.1 2.135.001 2.955-.323 2.68-.996 8.257-5.106 12.842a25.58 25.58 0 0 1-6.985 5.45.497.497 0 0 1-.146.076c-.63.325-1.264.616-1.896.866-2.169.86-4.314 1.29-6.422 1.29Zm-2.749-1.283c3.74.7 7.381-.14 10.554-1.745.22-.448.857-1.948.809-4.215-.056-2.673-.518-3.517-.523-3.525a.507.507 0 0 1 .175-.683.495.495 0 0 1 .678.159c.062.099.609 1.052.671 4.027.031 1.477-.2 2.657-.451 3.487a24.315 24.315 0 0 0 5.54-4.573 16.859 16.859 0 0 0 1.964-2.687c-.183-.448-.596-1.743-.372-3.918.261-2.532.357-3.913.358-3.927a.5.5 0 1 1 .999.069c-.001.014-.098 1.41-.361 3.961-.114 1.116-.046 1.962.059 2.546 1.601-3.277 1.99-6.508 2.21-8.336.089-.737.042-1.733-.007-2.788-.085-1.811-.181-3.864.301-5.708.515-1.972 1.53-3.18 2.116-3.823-.466-.122-1.124-.186-1.504.167-.501.465-.882.596-1.322.747-.416.142-.933.32-1.834.877-.831.515-.851 1.189-.815 2.247.025.7.052 1.494-.356 2.195-.714 1.227-1.584.945-2.159.76-.311-.101-.582-.189-.864-.123-.027.216.158.823.295 1.274.316 1.037.748 2.456.514 3.889-.131.8-.37 1.29-.754 1.54-.449.294-.926.171-1.309.072-.504-.13-.602-.118-.746.092-.554.802-.709 1.535-.923 2.548-.091.428-.193.912-.339 1.456-.227.851-.664 1.447-1.298 1.77-.964.49-2.351.355-4.366-.426a12.239 12.239 0 0 0-4.241-.82h-.016c-.435 0-.828.204-1.26.522-2.889 2.772-6.071 4.337-9.207 4.479-.606.027-1.244.005-1.89-.055-.704.177-1.129.722-1.302 1.243-.215.649-.144 1.559.702 2.168a40.052 40.052 0 0 0 6.865 3.975c.727.33 1.454.592 2.179.795.32-.242 1.798-1.416 3.162-3.442-.105-.24-.721-1.686-.795-2.967-.038-.639-.059-1.46.048-1.746l.937.353s.006-.011.013-.042c-.002.012-.062.295.001 1.377.039.672.265 1.43.454 1.96 1.521-2.64 1.745-3.581 1.747-3.59a.503.503 0 0 1 .594-.383c.268.058.44.318.386.587-.022.109-.265 1.15-1.985 4.102a16.663 16.663 0 0 1-3.332 4.078Zm-19.12-9.695c.254.572.937 1.96 2.121 3.341 1.182 1.38 2.563 2.388 3.153 2.789l1.873-1.508c-.686-.527-1.786-1.384-2.489-1.989a22.87 22.87 0 0 1-3.251-3.513.482.482 0 0 1-.056-.1 5.751 5.751 0 0 1-.215-.305l-1.136 1.285Zm3.33-.103a20.518 20.518 0 0 0 1.98 1.976c.471.404 1.14.938 1.733 1.4a3.009 3.009 0 0 1 .151-1.12c.147-.44.382-.824.683-1.133-1.724-.289-3.381-.754-4.547-1.123Zm-1.158-1.453c.685.251 4.092 1.454 7.227 1.77.196-.036.399-.052.606-.049.967.018 1.892-.05 2.746-.207 3.138-.574 5.183-2.294 6.405-3.322.215-.181.408-.343.58-.478l.165-.127a24.79 24.79 0 0 0 2.507-2.846c3.175-4.191 2.978-6.195 2.883-7.158l-.013-.14c-.023-.25-.162-.7-.31-1.178-.385-1.241-.911-2.941-.414-4.195.459-1.158 1.628-1.262 2.758-1.363.811-.072 1.649-.147 2.303-.58 1.4-.93.694-3.323.057-4.59-.252-.5-.563-.877-.837-1.209-.47-.569-.955-1.157-.733-2.045.142-.567.534-.933.914-1.287.481-.45.896-.838.877-1.641-.019-.796-.244-.88-.652-1.034-.274-.103-.614-.23-.866-.567-.448-.597-.192-1.103-.005-1.472.134-.265.261-.515.255-.888-.007-.47-.732-1.23-1.385-1.758-.509.596-1.698 1.654-4.343 2.838-1.511.676-2.652.814-3.86.96-1.89.228-4.031.486-8.374 2.994-5.102 2.945-7.264 6.688-8.556 8.924-.166.288-.316.547-.454.773-.11.18-.313.6-.476.936-.119.245-.228.47-.302.61-1.12 2.09-1.596 4.855-1.418 8.227.749-2.526 2.279-6.282 5.308-9.772 5.077-5.85 14.94-9.043 15.358-9.176a.5.5 0 1 1 .303.955c-.094.03-9.061 2.933-14.147 8.063.986.324 3.275.976 4.866.611.655-.15 1.221-.292 1.72-.417 1.235-.31 2.128-.535 3.178-.576h.02a.5.5 0 0 1 .019 1.001c-.902.035-1.715.23-2.806.505l.975.937a.5.5 0 1 1-.693.723l-1.431-1.375c-.239.058-.491.118-.759.18-2.178.496-5.245-.57-5.836-.787l-.012.014a24.722 24.722 0 0 0-3.653 5.642c1.335-.727 3.513-1.665 4.9-.972.921.46 1.622 1.288 2.3 2.088.741.876 1.441 1.702 2.358 2.013a.502.502 0 0 1-.321.95c-1.18-.4-2.004-1.373-2.801-2.314a18.017 18.017 0 0 0-.862-.972c-.21.65-.56 1.882-.571 2.888-.016 1.431.698 3.459.705 3.479a.501.501 0 0 1-.943.336c-.032-.09-.781-2.215-.763-3.826.015-1.415.589-3.122.75-3.573a3.036 3.036 0 0 0-.299-.172c-1.249-.623-4.118.976-5.024 1.586a.5.5 0 0 1-.108.055c-1.13 2.852-1.405 4.967-1.409 5.004l-.002.014c.69 4.536 2.07 6.565 2.395 6.99Zm19.82-3.162c1.082.026 2.681.207 4.429.884 1.684.652 2.879.809 3.551.466.376-.19.632-.562.786-1.134.138-.519.234-.969.325-1.404.221-1.042.411-1.943 1.079-2.91.564-.818 1.35-.615 1.819-.493.204.052.434.111.513.06.032-.022.199-.163.314-.864.196-1.202-.181-2.44-.484-3.434-.281-.923-.484-1.59-.207-2.088a.915.915 0 0 1 .588-.442c.576-.151 1.062.006 1.453.132.547.176.678.22.986-.31.263-.452.243-1.037.221-1.656-.033-.953-.073-2.123 1.038-2.963-.364-.66-1.687-2.908-3.694-4.67-2.112-1.852-4.916-3.269-5.596-3.6a.696.696 0 0 0-.04.115c-.091.365.056.583.534 1.163.292.354.656.795.959 1.396.976 1.94 1.458 4.643-.398 5.875-.865.575-1.875.665-2.767.744-1.076.096-1.695.178-1.916.735-.367.925.099 2.43.439 3.528.171.553.319 1.03.351 1.385l.012.13c.108 1.091.331 3.36-3.082 7.864-.396.522-.801 1.02-1.213 1.49ZM517 0c2.238 0 4.433.484 6.57 1.452a41.021 41.021 0 0 1 7.037 4.075c.096.07.187.143.273.22l2.371-1.908a.5.5 0 0 1 .575-.037c.082.05 2.032 1.256 3.683 3.183 1.656 1.934 2.382 3.833 2.412 3.913a.502.502 0 0 1-.093.509l-1.458 1.648a.495.495 0 0 1-.119.1c.745 1.45 1.745 4.149 2.105 8.592.319 3.935-.179 7.162-1.479 9.59-.07.13-.173.343-.284.573-.191.394-.388.8-.523 1.023-.134.219-.28.471-.442.75-1.254 2.172-3.588 6.213-8.922 9.292-4.52 2.61-6.769 2.88-8.754 3.12-1.18.143-2.199.266-3.571.88-3.49 1.563-4.188 2.841-4.194 2.854a.514.514 0 0 1-.326.26.501.501 0 0 1-.407-.07c-.366-.253-2.191-1.58-2.211-2.862-.01-.622.206-1.047.363-1.358.162-.318.156-.326.088-.417-.073-.097-.207-.15-.418-.23-.504-.19-1.265-.476-1.301-1.948-.028-1.173.591-1.827 1.094-2.302-.995-.497-3.546-1.852-5.569-3.627-1.307-1.146-2.332-2.487-2.962-3.409-.481-.703-.77-1.167-.936-1.485-.644.35-1.082.5-1.423.616-.4.137-.62.213-.966.534-1.15 1.067-3.03.228-3.257.071a.539.539 0 0 1-.229-.383c-.032-.287.132-.465.43-.787.495-.537 1.525-1.652 2.02-3.546.443-1.696.351-3.668.269-5.407-.051-1.098-.1-2.135-.001-2.955.323-2.68.995-8.257 5.106-12.841a25.581 25.581 0 0 1 6.985-5.45.497.497 0 0 1 .146-.077c.63-.325 1.264-.615 1.896-.866C512.747.43 514.892 0 517 0Zm2.749 1.284c-3.74-.701-7.381.139-10.554 1.744-.22.448-.857 1.948-.809 4.216.055 2.672.518 3.517.523 3.524a.506.506 0 0 1-.176.683.494.494 0 0 1-.677-.159c-.062-.099-.609-1.052-.671-4.027-.031-1.476.2-2.656.451-3.487a24.316 24.316 0 0 0-5.54 4.574 16.856 16.856 0 0 0-1.964 2.686c.183.448.595 1.743.371 3.918-.26 2.533-.356 3.914-.357 3.927a.5.5 0 1 1-.999-.069c.001-.013.098-1.409.361-3.96.114-1.116.046-1.963-.06-2.546-1.6 3.276-1.989 6.507-2.21 8.336-.088.736-.042 1.733.008 2.788.085 1.81.181 3.863-.301 5.708-.515 1.971-1.53 3.18-2.116 3.822.466.122 1.124.186 1.504-.167.501-.465.881-.595 1.322-.746.416-.143.933-.32 1.834-.877.831-.515.851-1.19.815-2.248-.025-.7-.052-1.494.356-2.195.714-1.226 1.584-.944 2.159-.76.311.101.582.19.864.123.027-.216-.158-.823-.295-1.274-.316-1.036-.748-2.456-.514-3.889.13-.8.37-1.29.754-1.54.449-.293.926-.17 1.309-.072.504.13.602.119.746-.092.554-.802.709-1.534.923-2.548.09-.427.193-.911.339-1.456.227-.851.664-1.446 1.298-1.769.963-.49 2.351-.355 4.366.425a12.24 12.24 0 0 0 4.241.82h.016c.435 0 .828-.204 1.26-.521 2.889-2.773 6.071-4.337 9.207-4.48a13.914 13.914 0 0 1 1.89.055c.704-.177 1.129-.722 1.302-1.243.215-.648.144-1.558-.702-2.168a40.048 40.048 0 0 0-6.865-3.975 15.234 15.234 0 0 0-2.179-.794c-.32.241-1.799 1.415-3.162 3.441.105.24.721 1.686.795 2.967.037.639.059 1.46-.048 1.746l-.937-.352s-.006.01-.013.041c.002-.012.062-.295-.001-1.377-.039-.672-.265-1.429-.454-1.96-1.521 2.64-1.745 3.582-1.747 3.591a.503.503 0 0 1-.594.382.499.499 0 0 1-.386-.587c.022-.109.265-1.149 1.984-4.101a16.684 16.684 0 0 1 3.333-4.078Zm19.12 9.694a14.179 14.179 0 0 0-2.121-3.34c-1.182-1.382-2.563-2.389-3.153-2.79l-1.874 1.508c.686.528 1.787 1.385 2.49 1.99a22.875 22.875 0 0 1 3.251 3.512.483.483 0 0 1 .056.1c.058.076.131.178.215.305l1.136-1.285Zm-3.33.103a20.531 20.531 0 0 0-1.98-1.975 52.797 52.797 0 0 0-1.733-1.401 2.99 2.99 0 0 1-.152 1.12 2.937 2.937 0 0 1-.682 1.133c1.724.29 3.381.754 4.547 1.123Zm1.158 1.453c-.685-.25-4.092-1.453-7.227-1.77a3.083 3.083 0 0 1-.606.049 13.943 13.943 0 0 0-2.746.207c-3.138.574-5.183 2.294-6.405 3.322a22.44 22.44 0 0 1-.58.478l-.165.127a24.79 24.79 0 0 0-2.507 2.847c-3.175 4.19-2.978 6.195-2.883 7.158l.013.14c.023.249.162.7.31 1.177.385 1.242.911 2.941.414 4.196-.459 1.157-1.628 1.262-2.758 1.362-.811.072-1.649.147-2.303.581-1.4.93-.694 3.322-.057 4.589.252.5.563.877.837 1.209.47.569.955 1.157.733 2.045-.142.567-.535.933-.914 1.288-.481.45-.896.837-.877 1.64.019.796.244.88.652 1.035.274.102.614.23.866.566.448.597.192 1.103.005 1.472-.134.265-.261.515-.255.889.007.469.732 1.23 1.385 1.757.509-.596 1.698-1.654 4.343-2.838 1.51-.676 2.652-.814 3.86-.96 1.89-.227 4.031-.486 8.374-2.993 5.102-2.945 7.264-6.688 8.556-8.925.166-.287.316-.547.453-.772.111-.18.314-.6.477-.937.119-.245.228-.47.302-.61 1.12-2.09 1.596-4.855 1.418-8.226-.749 2.526-2.279 6.281-5.308 9.771-5.077 5.851-14.94 9.044-15.358 9.177a.5.5 0 0 1-.304-.955c.095-.03 9.062-2.934 14.148-8.063-.986-.325-3.275-.976-4.867-.612-.654.15-1.22.292-1.719.418-1.235.31-2.128.535-3.178.576h-.02a.5.5 0 0 1-.019-1.002c.901-.035 1.715-.23 2.806-.504l-.975-.937a.501.501 0 0 1 .693-.724l1.431 1.375c.238-.058.491-.118.759-.18 2.178-.496 5.245.57 5.836.788l.012-.014a24.721 24.721 0 0 0 3.653-5.643c-1.335.727-3.513 1.665-4.9.972-.921-.46-1.622-1.288-2.3-2.088-.741-.875-1.441-1.702-2.358-2.013a.502.502 0 0 1 .321-.949c1.18.4 2.004 1.373 2.801 2.314.289.341.571.675.862.971.21-.65.56-1.882.571-2.887.016-1.432-.698-3.46-.705-3.48a.5.5 0 1 1 .943-.336c.032.09.781 2.215.763 3.827-.015 1.415-.59 3.122-.75 3.572.097.064.197.121.299.172 1.249.624 4.117-.976 5.024-1.586a.478.478 0 0 1 .108-.055c1.13-2.852 1.405-4.967 1.409-5.004l.002-.014c-.69-4.536-2.07-6.565-2.395-6.99Zm-19.82 3.163a13.267 13.267 0 0 1-4.429-.885c-1.684-.652-2.879-.809-3.552-.466-.375.19-.631.562-.785 1.134-.138.52-.234.97-.325 1.405-.221 1.042-.411 1.942-1.079 2.91-.564.817-1.35.614-1.82.493-.203-.052-.433-.112-.512-.06-.032.021-.199.162-.314.864-.196 1.202.181 2.44.484 3.434.281.923.484 1.59.207 2.087a.918.918 0 0 1-.588.442c-.576.152-1.062-.005-1.453-.131-.547-.177-.678-.22-.987.31-.262.451-.242 1.036-.22 1.655.033.953.073 2.124-1.038 2.964.364.659 1.687 2.907 3.694 4.668 2.112 1.854 4.916 3.27 5.596 3.601a.694.694 0 0 0 .04-.115c.091-.365-.056-.583-.534-1.162-.293-.355-.656-.796-.959-1.397-.976-1.94-1.458-4.643.398-5.875.865-.574 1.875-.664 2.766-.744 1.077-.096 1.696-.177 1.917-.734.367-.926-.099-2.43-.439-3.529-.171-.552-.319-1.03-.351-1.384l-.012-.131c-.108-1.091-.331-3.36 3.081-7.863.397-.522.801-1.02 1.214-1.491ZM657.352 50.104c-2.237 0-4.433-.484-6.57-1.452a41.014 41.014 0 0 1-7.037-4.075 3.171 3.171 0 0 1-.273-.22l-2.371 1.908a.5.5 0 0 1-.575.037 17.34 17.34 0 0 1-3.682-3.183c-1.657-1.934-2.383-3.833-2.413-3.912a.503.503 0 0 1 .094-.51l1.457-1.648a.5.5 0 0 1 .12-.099c-.745-1.45-1.745-4.15-2.106-8.593-.319-3.935.179-7.161 1.479-9.59.07-.13.173-.343.284-.573.191-.393.388-.8.524-1.023.133-.219.279-.47.441-.75 1.254-2.172 3.588-6.212 8.922-9.292 4.52-2.61 6.769-2.88 8.754-3.12 1.18-.142 2.199-.266 3.571-.88 3.491-1.563 4.188-2.841 4.194-2.854a.514.514 0 0 1 .327-.259.5.5 0 0 1 .406.07c.366.253 2.191 1.58 2.211 2.862.01.621-.206 1.047-.363 1.357-.161.319-.156.326-.088.417.074.097.207.15.418.23.504.19 1.265.476 1.301 1.948.028 1.173-.59 1.828-1.094 2.302.995.497 3.546 1.852 5.569 3.627 1.307 1.147 2.332 2.487 2.962 3.41.481.703.77 1.167.936 1.484.644-.35 1.083-.5 1.423-.616.4-.137.62-.212.966-.533 1.15-1.068 3.03-.229 3.257-.072a.535.535 0 0 1 .229.384c.032.287-.132.464-.43.787-.495.536-1.525 1.652-2.02 3.545-.443 1.696-.351 3.668-.269 5.407.052 1.098.1 2.135.001 2.955-.323 2.68-.995 8.257-5.106 12.842a25.58 25.58 0 0 1-6.985 5.45.497.497 0 0 1-.146.076c-.63.325-1.264.616-1.896.866-2.168.86-4.314 1.29-6.422 1.29Zm-2.749-1.283c3.74.7 7.381-.14 10.554-1.745.22-.448.857-1.948.809-4.215-.055-2.673-.518-3.517-.523-3.525a.506.506 0 0 1 .176-.683.496.496 0 0 1 .678.159c.062.099.608 1.052.67 4.027.031 1.477-.2 2.657-.451 3.487a24.293 24.293 0 0 0 5.54-4.573 16.859 16.859 0 0 0 1.964-2.687c-.183-.448-.595-1.743-.371-3.918.26-2.532.356-3.913.357-3.927a.5.5 0 1 1 .999.069c-.001.014-.098 1.41-.361 3.961-.114 1.116-.045 1.962.06 2.546 1.6-3.277 1.989-6.508 2.21-8.336.088-.737.042-1.733-.008-2.788-.085-1.811-.181-3.864.301-5.708.515-1.972 1.53-3.18 2.116-3.823-.466-.122-1.123-.186-1.503.167-.502.465-.882.596-1.322.747-.417.142-.934.32-1.835.877-.831.515-.851 1.189-.814 2.247.024.7.051 1.494-.357 2.195-.714 1.227-1.584.945-2.159.76-.311-.101-.582-.189-.864-.123-.027.216.158.823.296 1.274.315 1.037.748 2.456.514 3.889-.131.8-.371 1.29-.755 1.54-.448.294-.926.171-1.309.072-.503-.13-.602-.118-.746.092-.554.802-.709 1.535-.923 2.548-.09.428-.193.912-.338 1.456-.228.851-.665 1.447-1.299 1.77-.963.49-2.351.355-4.366-.426a12.239 12.239 0 0 0-4.241-.82h-.016c-.435 0-.827.204-1.259.522-2.89 2.772-6.072 4.337-9.207 4.479-.606.027-1.244.005-1.891-.055-.704.177-1.129.722-1.302 1.243-.215.649-.144 1.559.703 2.168a39.977 39.977 0 0 0 6.865 3.975 15.17 15.17 0 0 0 2.178.795c.32-.242 1.799-1.416 3.163-3.442-.106-.24-.722-1.686-.796-2.967-.037-.639-.059-1.46.048-1.746l.937.353s.007-.011.014-.042c-.003.012-.063.295 0 1.377.039.672.265 1.43.454 1.96 1.522-2.64 1.745-3.581 1.747-3.59a.504.504 0 0 1 .594-.383.498.498 0 0 1 .386.587c-.022.109-.265 1.15-1.984 4.102a16.662 16.662 0 0 1-3.333 4.078Zm-19.12-9.695c.255.572.937 1.96 2.121 3.341 1.182 1.38 2.563 2.388 3.154 2.789l1.873-1.508c-.686-.527-1.787-1.384-2.49-1.989a22.87 22.87 0 0 1-3.251-3.513.533.533 0 0 1-.056-.1 5.751 5.751 0 0 1-.215-.305l-1.136 1.285Zm3.33-.103a20.633 20.633 0 0 0 1.98 1.976c.471.404 1.14.938 1.733 1.4a2.99 2.99 0 0 1 .152-1.12 2.94 2.94 0 0 1 .683-1.133c-1.725-.289-3.382-.754-4.548-1.123Zm-1.158-1.453c.685.251 4.093 1.454 7.227 1.77.196-.036.399-.052.606-.049.967.018 1.892-.05 2.746-.207 3.138-.574 5.183-2.294 6.405-3.322a22.142 22.142 0 0 1 .745-.605 24.6 24.6 0 0 0 2.507-2.846c3.176-4.191 2.978-6.195 2.883-7.158l-.013-.14c-.022-.25-.162-.7-.31-1.178-.384-1.241-.911-2.941-.413-4.195.459-1.158 1.627-1.262 2.758-1.363.81-.072 1.649-.147 2.302-.58 1.4-.93.694-3.323.057-4.59-.252-.5-.563-.877-.837-1.209-.469-.569-.955-1.157-.733-2.045.142-.567.535-.933.914-1.287.481-.45.896-.838.877-1.641-.019-.796-.244-.88-.652-1.034-.273-.103-.614-.23-.866-.567-.448-.597-.192-1.103-.005-1.472.134-.265.261-.515.255-.888-.007-.47-.732-1.23-1.385-1.758-.509.596-1.698 1.654-4.343 2.838-1.51.676-2.652.814-3.86.96-1.89.228-4.031.486-8.374 2.994-5.102 2.945-7.264 6.688-8.556 8.924-.166.288-.316.547-.453.773-.111.18-.314.6-.477.936-.118.245-.228.47-.302.61-1.12 2.09-1.596 4.855-1.418 8.227.749-2.526 2.28-6.282 5.308-9.772 5.077-5.85 14.94-9.043 15.358-9.176a.501.501 0 0 1 .304.955c-.095.03-9.061 2.933-14.148 8.063.986.324 3.275.976 4.867.611.654-.15 1.22-.292 1.719-.417 1.235-.31 2.128-.535 3.178-.576h.02a.502.502 0 0 1 .019 1.001c-.901.035-1.715.23-2.806.505l.975.937a.501.501 0 0 1-.693.723l-1.43-1.375c-.239.058-.492.118-.76.18-2.178.496-5.245-.57-5.835-.787l-.012.014a24.654 24.654 0 0 0-3.653 5.642c1.334-.727 3.513-1.665 4.899-.972.921.46 1.622 1.288 2.3 2.088.741.876 1.441 1.702 2.358 2.013a.502.502 0 0 1-.321.95c-1.18-.4-2.004-1.373-2.8-2.314-.29-.342-.572-.675-.863-.972-.209.65-.56 1.882-.571 2.888-.016 1.431.698 3.459.705 3.479a.5.5 0 1 1-.943.336c-.032-.09-.781-2.215-.763-3.826.016-1.415.59-3.122.75-3.573a3.142 3.142 0 0 0-.298-.172c-1.25-.623-4.118.976-5.025 1.586a.477.477 0 0 1-.108.055c-1.13 2.852-1.405 4.967-1.409 5.004l-.002.014c.69 4.536 2.07 6.565 2.395 6.99Zm19.82-3.162c1.082.026 2.681.207 4.429.884 1.684.652 2.879.809 3.552.466.375-.19.631-.562.785-1.134.138-.519.234-.969.326-1.404.22-1.042.41-1.943 1.078-2.91.564-.818 1.35-.615 1.82-.493.203.052.433.111.512.06.032-.022.199-.163.314-.864.196-1.202-.181-2.44-.484-3.434-.281-.923-.484-1.59-.207-2.088a.918.918 0 0 1 .588-.442c.576-.151 1.062.006 1.453.132.547.176.678.22.987-.31.262-.452.242-1.037.221-1.656-.033-.953-.074-2.123 1.037-2.963-.363-.66-1.686-2.908-3.693-4.67-2.113-1.852-4.916-3.269-5.597-3.6a.802.802 0 0 0-.04.115c-.091.365.056.583.534 1.163.293.354.657.795.959 1.396.976 1.94 1.458 4.643-.398 5.875-.865.575-1.875.665-2.766.744-1.077.096-1.696.178-1.917.735-.367.925.099 2.43.439 3.528.171.553.319 1.03.351 1.385l.013.13c.107 1.091.33 3.36-3.082 7.864-.396.522-.801 1.02-1.214 1.49ZM190.283 58.744c.001 2.237-.484 4.433-1.452 6.57a41.042 41.042 0 0 1-4.074 7.037c-.07.096-.144.187-.221.273l1.908 2.371a.498.498 0 0 1 .037.575 17.32 17.32 0 0 1-3.183 3.682c-1.933 1.657-3.833 2.383-3.912 2.413a.502.502 0 0 1-.509-.094l-1.649-1.457a.514.514 0 0 1-.099-.12c-1.45.745-4.149 1.745-8.593 2.106-3.935.32-7.161-.179-9.59-1.48-.13-.069-.343-.172-.573-.283-.393-.19-.8-.388-1.023-.523-.219-.134-.471-.28-.75-.442-2.172-1.254-6.212-3.588-9.292-8.922-2.609-4.52-2.881-6.77-3.12-8.754-.142-1.18-.266-2.2-.88-3.571-1.563-3.49-2.841-4.188-2.854-4.194a.515.515 0 0 1-.259-.326.504.504 0 0 1 .069-.407c.254-.366 1.58-2.191 2.863-2.211.621-.01 1.047.206 1.357.363.319.161.326.156.417.088.097-.074.151-.207.23-.418.19-.504.476-1.265 1.948-1.3 1.173-.029 1.828.59 2.302 1.093.497-.995 1.852-3.546 3.627-5.57 1.147-1.306 2.487-2.331 3.409-2.961.704-.48 1.168-.77 1.485-.936-.349-.644-.499-1.083-.616-1.423-.137-.4-.212-.62-.533-.966-1.068-1.15-.229-3.03-.072-3.257a.539.539 0 0 1 .384-.229c.287-.032.464.132.787.43.536.495 1.652 1.525 3.545 2.02 1.696.443 3.668.35 5.407.27 1.098-.053 2.135-.101 2.955-.002 2.68.323 8.257.995 12.842 5.106a25.595 25.595 0 0 1 5.45 6.985.513.513 0 0 1 .076.146c.326.63.616 1.264.866 1.896.861 2.168 1.29 4.314 1.29 6.422Zm-1.284 2.749c.702-3.74-.138-7.38-1.744-10.554-.448-.22-1.948-.857-4.216-.81-2.672.056-3.516.52-3.524.524a.507.507 0 0 1-.683-.176.495.495 0 0 1 .159-.677c.099-.063 1.052-.61 4.027-.671 1.476-.03 2.657.2 3.487.45a24.284 24.284 0 0 0-4.573-5.539 16.898 16.898 0 0 0-2.687-1.964c-.448.183-1.743.595-3.918.371-2.532-.26-3.913-.356-3.927-.357a.5.5 0 1 1 .069-.998c.014 0 1.409.097 3.961.36 1.116.114 1.962.045 2.545-.06-3.276-1.6-6.507-1.99-8.336-2.21-.736-.088-1.732-.042-2.787.008-1.811.085-3.864.181-5.708-.301-1.972-.515-3.18-1.53-3.823-2.116-.122.466-.186 1.124.167 1.503.466.502.596.882.747 1.322.142.417.319.934.877 1.835.514.831 1.189.85 2.247.814.7-.024 1.494-.051 2.195.357 1.227.714.945 1.584.76 2.159-.101.311-.189.582-.123.864.216.027.823-.158 1.274-.296 1.037-.315 2.456-.748 3.889-.514.8.131 1.29.371 1.541.755.293.448.17.926.071 1.309-.13.504-.118.602.092.746.802.554 1.535.709 2.548.923.427.09.912.193 1.457.339.85.227 1.445.664 1.768 1.298.491.963.356 2.351-.425 4.366a12.263 12.263 0 0 0-.82 4.241v.016c0 .435.204.828.522 1.26 2.772 2.889 4.337 6.07 4.479 9.206.027.606.005 1.244-.055 1.89.177.705.722 1.13 1.243 1.303.649.215 1.559.144 2.168-.703a39.959 39.959 0 0 0 3.975-6.864c.329-.727.592-1.455.795-2.18-.242-.319-1.416-1.798-3.442-3.162-.239.106-1.686.722-2.967.796-.639.037-1.46.059-1.746-.048l.353-.937s-.012-.007-.042-.014c.012.003.295.063 1.377 0 .672-.04 1.429-.265 1.96-.454-2.64-1.521-3.581-1.745-3.591-1.747a.502.502 0 0 1-.381-.594.498.498 0 0 1 .586-.386c.109.022 1.149.265 4.102 1.984a16.67 16.67 0 0 1 4.077 3.333Zm-9.694 19.12c.572-.254 1.96-.937 3.341-2.12 1.381-1.183 2.388-2.564 2.789-3.154l-1.508-1.874c-.527.686-1.384 1.787-1.989 2.49a22.854 22.854 0 0 1-3.513 3.25.534.534 0 0 1-.099.057c-.077.058-.178.13-.306.215l1.285 1.136Zm-.103-3.33a20.558 20.558 0 0 0 1.976-1.98c.405-.47.938-1.14 1.401-1.733a2.99 2.99 0 0 1-1.121-.152 2.944 2.944 0 0 1-1.133-.683c-.289 1.725-.754 3.382-1.123 4.548Zm-1.453 1.158c.251-.685 1.454-4.093 1.77-7.227a3.026 3.026 0 0 1-.048-.606 13.986 13.986 0 0 0-.208-2.746c-.574-3.138-2.294-5.183-3.322-6.405a23.335 23.335 0 0 1-.478-.58 9.108 9.108 0 0 1-.127-.165 24.69 24.69 0 0 0-2.846-2.507c-4.191-3.176-6.195-2.978-7.158-2.883l-.14.013c-.249.023-.701.162-1.178.31-1.241.384-2.941.91-4.195.413-1.158-.459-1.262-1.627-1.363-2.758-.072-.81-.147-1.648-.581-2.302-.929-1.4-3.322-.694-4.588-.057-.501.252-.878.563-1.21.837-.569.47-1.157.955-2.045.733-.567-.142-.933-.535-1.287-.914-.45-.48-.838-.896-1.641-.877-.796.02-.881.244-1.034.652-.103.274-.231.614-.567.866-.597.448-1.103.192-1.472.005-.265-.134-.515-.26-.888-.255-.469.007-1.23.732-1.758 1.385.596.509 1.654 1.698 2.838 4.343.676 1.51.814 2.652.96 3.86.228 1.89.486 4.031 2.994 8.374 2.945 5.102 6.688 7.264 8.924 8.556.288.166.547.316.773.453.18.11.6.314.936.477.245.118.471.228.61.302 2.091 1.12 4.855 1.596 8.227 1.418-2.526-.75-6.282-2.28-9.772-5.308-5.851-5.077-9.043-14.94-9.176-15.358a.5.5 0 0 1 .955-.304c.03.095 2.933 9.061 8.062 14.148.325-.986.977-3.275.612-4.867-.149-.654-.292-1.22-.417-1.72-.311-1.234-.535-2.127-.576-3.177l-.001-.02a.5.5 0 0 1 1.002-.02c.035.902.231 1.716.505 2.807l.937-.975a.501.501 0 0 1 .723.693l-1.375 1.43c.058.24.118.492.18.76.496 2.178-.569 5.245-.787 5.835l.014.013a24.668 24.668 0 0 0 5.642 3.652c-.727-1.334-1.665-3.513-.972-4.9.46-.92 1.288-1.62 2.089-2.299.875-.741 1.701-1.441 2.012-2.358a.501.501 0 0 1 .949.32c-.399 1.18-1.372 2.005-2.313 2.802-.342.289-.675.571-.972.862.651.21 1.882.56 2.888.57 1.431.017 3.459-.697 3.479-.704a.501.501 0 0 1 .336.943c-.089.032-2.214.781-3.826.763-1.415-.016-3.122-.59-3.573-.75a3.16 3.16 0 0 0-.172.299c-.623 1.249.976 4.117 1.586 5.024.023.034.042.07.055.108 2.852 1.13 4.967 1.405 5.004 1.41l.014.001c4.536-.69 6.565-2.07 6.99-2.395Zm-3.162-19.82a13.26 13.26 0 0 1 .884-4.43c.652-1.683.809-2.878.466-3.55-.19-.376-.562-.632-1.134-.786a25.983 25.983 0 0 0-1.404-.326c-1.042-.22-1.943-.41-2.91-1.078-.818-.564-.615-1.35-.493-1.82.052-.203.111-.433.059-.512-.021-.032-.162-.199-.863-.314-1.202-.196-2.44.18-3.434.484-.923.281-1.59.484-2.088.207a.917.917 0 0 1-.442-.588c-.151-.576.005-1.062.132-1.453.176-.547.219-.678-.311-.987-.451-.262-1.036-.242-1.655-.22-.953.032-2.123.073-2.963-1.038-.66.364-2.908 1.687-4.669 3.694-1.853 2.112-3.27 4.915-3.601 5.596.038.016.076.03.115.04.365.091.583-.056 1.163-.534.354-.293.795-.657 1.396-.959 1.94-.976 4.643-1.458 5.875.398.575.865.665 1.875.744 2.766.096 1.077.178 1.696.734 1.917.926.367 2.431-.1 3.529-.44.553-.17 1.03-.318 1.385-.35l.131-.013c1.09-.107 3.359-.33 7.863 3.082.522.397 1.019.801 1.491 1.214ZM330.462 58.744c.001 2.237-.484 4.433-1.452 6.57a41.042 41.042 0 0 1-4.074 7.037c-.07.096-.143.187-.221.273l1.908 2.371a.498.498 0 0 1 .037.575 17.32 17.32 0 0 1-3.183 3.682c-1.933 1.657-3.833 2.383-3.912 2.413a.502.502 0 0 1-.509-.094l-1.649-1.457a.514.514 0 0 1-.099-.12c-1.45.745-4.149 1.745-8.593 2.106-3.935.32-7.161-.179-9.59-1.48-.13-.069-.343-.172-.573-.283-.393-.19-.8-.388-1.022-.523-.219-.134-.472-.28-.751-.442-2.171-1.254-6.212-3.588-9.292-8.922-2.609-4.52-2.88-6.77-3.12-8.754-.142-1.18-.266-2.2-.88-3.571-1.562-3.49-2.841-4.188-2.854-4.194a.515.515 0 0 1-.259-.326.5.5 0 0 1 .07-.407c.253-.366 1.58-2.191 2.862-2.211.622-.01 1.047.206 1.357.363.319.161.326.156.417.088.097-.074.151-.207.23-.418.19-.504.476-1.265 1.948-1.3 1.173-.029 1.828.59 2.303 1.093.496-.995 1.851-3.546 3.626-5.57 1.147-1.306 2.487-2.331 3.409-2.961.704-.48 1.168-.77 1.486-.936-.35-.644-.5-1.083-.617-1.423-.137-.4-.212-.62-.533-.966-1.068-1.15-.229-3.03-.071-3.257a.535.535 0 0 1 .383-.229c.287-.032.464.132.787.43.536.495 1.652 1.525 3.545 2.02 1.697.443 3.668.35 5.407.27 1.098-.053 2.136-.101 2.955-.002 2.68.323 8.257.995 12.842 5.106a25.595 25.595 0 0 1 5.45 6.985.489.489 0 0 1 .076.146c.326.63.616 1.264.867 1.896.86 2.168 1.289 4.314 1.289 6.422Zm-1.283 2.749c.701-3.74-.139-7.38-1.745-10.554-.448-.22-1.948-.857-4.215-.81-2.673.056-3.517.52-3.525.524a.506.506 0 0 1-.682-.176.495.495 0 0 1 .158-.677c.099-.063 1.052-.61 4.028-.671 1.476-.03 2.656.2 3.487.45a24.314 24.314 0 0 0-4.574-5.539 16.898 16.898 0 0 0-2.687-1.964c-.448.183-1.743.595-3.918.371-2.532-.26-3.913-.356-3.927-.357a.5.5 0 1 1 .069-.998c.014 0 1.409.097 3.961.36 1.116.114 1.963.045 2.546-.06-3.276-1.6-6.508-1.99-8.336-2.21-.737-.088-1.733-.042-2.788.008-1.811.085-3.864.181-5.708-.301-1.972-.515-3.18-1.53-3.823-2.116-.122.466-.186 1.124.167 1.503.466.502.596.882.747 1.322.142.417.319.934.877 1.835.515.831 1.189.85 2.247.814.701-.024 1.494-.051 2.195.357 1.227.714.945 1.584.76 2.159-.101.311-.189.582-.123.864.216.027.823-.158 1.274-.296 1.037-.315 2.456-.748 3.889-.514.8.131 1.29.371 1.541.755.293.448.17.926.071 1.309-.13.504-.118.602.092.746.803.554 1.535.709 2.548.923.428.09.912.193 1.457.339.851.227 1.446.664 1.768 1.298.491.963.356 2.351-.425 4.366a12.234 12.234 0 0 0-.819 4.241v.016c0 .435.203.828.521 1.26 2.772 2.889 4.337 6.07 4.479 9.206.027.606.005 1.244-.055 1.89.177.705.722 1.13 1.243 1.303.649.215 1.559.144 2.168-.703a39.959 39.959 0 0 0 3.975-6.864c.329-.727.593-1.455.795-2.18-.242-.319-1.416-1.798-3.442-3.162-.239.106-1.685.722-2.967.796-.638.037-1.46.059-1.746-.048l.353-.937s-.011-.007-.041-.014c.011.003.294.063 1.376 0 .673-.04 1.43-.265 1.96-.454-2.64-1.521-3.581-1.745-3.591-1.747a.503.503 0 0 1-.381-.594.498.498 0 0 1 .586-.386c.109.022 1.149.265 4.102 1.984a16.68 16.68 0 0 1 4.078 3.333Zm-9.695 19.12c.573-.254 1.96-.937 3.341-2.12 1.381-1.183 2.388-2.564 2.789-3.154l-1.508-1.874c-.527.686-1.384 1.787-1.989 2.49a22.854 22.854 0 0 1-3.513 3.25.504.504 0 0 1-.099.057c-.077.058-.178.13-.306.215l1.285 1.136Zm-.103-3.33a20.558 20.558 0 0 0 1.976-1.98c.405-.47.938-1.14 1.401-1.733a2.99 2.99 0 0 1-1.121-.152 2.94 2.94 0 0 1-1.132-.683c-.29 1.725-.755 3.382-1.124 4.548Zm-1.453 1.158c.251-.685 1.454-4.093 1.77-7.227a3.026 3.026 0 0 1-.048-.606 13.91 13.91 0 0 0-.208-2.746c-.574-3.138-2.294-5.183-3.322-6.405a23.335 23.335 0 0 1-.478-.58 9.108 9.108 0 0 1-.127-.165 24.69 24.69 0 0 0-2.846-2.507c-4.191-3.176-6.195-2.978-7.158-2.883l-.14.013c-.249.023-.701.162-1.178.31-1.241.384-2.941.91-4.195.413-1.158-.459-1.262-1.627-1.363-2.758-.072-.81-.147-1.648-.581-2.302-.929-1.4-3.322-.694-4.588-.057-.501.252-.877.563-1.209.837-.569.47-1.158.955-2.045.733-.567-.142-.934-.535-1.288-.914-.45-.48-.838-.896-1.641-.877-.796.02-.88.244-1.034.652-.103.274-.231.614-.567.866-.597.448-1.102.192-1.472.005-.264-.134-.514-.26-.888-.255-.469.007-1.23.732-1.758 1.385.596.509 1.654 1.698 2.838 4.343.676 1.51.814 2.652.96 3.86.228 1.89.486 4.031 2.994 8.374 2.945 5.102 6.688 7.264 8.925 8.556.287.166.546.316.772.453.18.11.6.314.937.477.244.118.47.228.609.302 2.091 1.12 4.855 1.596 8.227 1.418-2.526-.75-6.282-2.28-9.772-5.308-5.851-5.077-9.043-14.94-9.176-15.358a.5.5 0 0 1 .955-.304c.03.095 2.933 9.061 8.063 14.148.325-.986.976-3.275.611-4.867a72.434 72.434 0 0 0-.417-1.72c-.311-1.234-.535-2.127-.576-3.177v-.02a.5.5 0 0 1 1.001-.02c.036.902.231 1.716.505 2.807l.937-.975a.5.5 0 1 1 .723.693l-1.374 1.43c.057.24.118.492.179.76.496 2.178-.569 5.245-.787 5.835l.014.013a24.69 24.69 0 0 0 5.642 3.652c-.727-1.334-1.665-3.513-.972-4.9.46-.92 1.288-1.62 2.089-2.299.875-.741 1.701-1.441 2.012-2.358a.502.502 0 0 1 .95.32c-.4 1.18-1.373 2.005-2.314 2.802-.342.289-.675.571-.972.862.651.21 1.882.56 2.888.57 1.432.017 3.459-.697 3.479-.704a.5.5 0 1 1 .336.943c-.089.032-2.214.781-3.826.763-1.415-.016-3.122-.59-3.573-.75a3.16 3.16 0 0 0-.172.299c-.623 1.249.976 4.117 1.586 5.024.023.034.042.07.055.108 2.852 1.13 4.967 1.405 5.004 1.41l.014.001c4.536-.69 6.565-2.07 6.99-2.395Zm-3.162-19.82a13.26 13.26 0 0 1 .884-4.43c.653-1.683.809-2.878.466-3.55-.19-.376-.561-.632-1.134-.786a25.983 25.983 0 0 0-1.404-.326c-1.042-.22-1.943-.41-2.91-1.078-.818-.564-.615-1.35-.493-1.82.052-.203.111-.433.059-.512-.021-.032-.162-.199-.863-.314-1.202-.196-2.44.18-3.434.484-.923.281-1.59.484-2.088.207a.92.92 0 0 1-.442-.588c-.151-.576.006-1.062.132-1.453.176-.547.219-.678-.311-.987-.451-.262-1.036-.242-1.655-.22-.953.032-2.123.073-2.963-1.038-.66.364-2.908 1.687-4.669 3.694-1.853 2.112-3.27 4.915-3.601 5.596.038.016.076.03.115.04.365.091.583-.056 1.163-.534.354-.293.795-.657 1.396-.959 1.94-.976 4.643-1.458 5.876.398.574.865.664 1.875.743 2.766.096 1.077.178 1.696.735 1.917.925.367 2.43-.1 3.528-.44.553-.17 1.03-.318 1.385-.35l.131-.013c1.09-.107 3.359-.33 7.863 3.082.522.397 1.019.801 1.491 1.214ZM470.642 58.744c0 2.237-.485 4.433-1.452 6.57a41.113 41.113 0 0 1-4.075 7.037c-.07.096-.143.187-.221.273l1.909 2.371a.5.5 0 0 1 .036.575 17.332 17.332 0 0 1-3.182 3.682c-1.934 1.657-3.833 2.383-3.913 2.413a.502.502 0 0 1-.509-.094l-1.648-1.457a.495.495 0 0 1-.1-.12c-1.45.745-4.149 1.745-8.593 2.106-3.935.32-7.161-.179-9.59-1.48-.13-.069-.343-.172-.573-.283-.393-.19-.8-.388-1.022-.523-.219-.134-.472-.28-.751-.442-2.171-1.254-6.212-3.588-9.291-8.922-2.61-4.52-2.881-6.77-3.121-8.754-.142-1.18-.265-2.2-.88-3.571-1.562-3.49-2.841-4.188-2.854-4.194a.515.515 0 0 1-.259-.326.5.5 0 0 1 .07-.407c.253-.366 1.58-2.191 2.862-2.211.622-.01 1.047.206 1.357.363.319.161.326.156.417.088.097-.074.151-.207.23-.418.19-.504.476-1.265 1.949-1.3 1.172-.029 1.827.59 2.302 1.093.496-.995 1.851-3.546 3.626-5.57 1.147-1.306 2.487-2.331 3.409-2.961.704-.48 1.168-.77 1.486-.936-.35-.644-.5-1.083-.617-1.423-.137-.4-.212-.62-.533-.966-1.068-1.15-.229-3.03-.071-3.257a.535.535 0 0 1 .383-.229c.287-.032.465.132.787.43.536.495 1.652 1.525 3.545 2.02 1.697.443 3.668.35 5.407.27 1.099-.053 2.136-.101 2.955-.002 2.68.323 8.258.995 12.842 5.106a25.595 25.595 0 0 1 5.45 6.985.489.489 0 0 1 .076.146c.326.63.616 1.264.867 1.896.86 2.168 1.29 4.314 1.29 6.422Zm-1.284 2.749c.701-3.74-.139-7.38-1.744-10.554-.449-.22-1.949-.857-4.216-.81-2.673.056-3.517.52-3.525.524a.506.506 0 0 1-.682-.176.496.496 0 0 1 .158-.677c.099-.063 1.052-.61 4.028-.671 1.476-.03 2.656.2 3.487.45a24.314 24.314 0 0 0-4.574-5.539 16.891 16.891 0 0 0-2.686-1.964c-.449.183-1.744.595-3.918.371-2.533-.26-3.914-.356-3.928-.357a.5.5 0 1 1 .069-.998c.014 0 1.409.097 3.962.36 1.115.114 1.962.045 2.545-.06-3.276-1.6-6.508-1.99-8.336-2.21-.737-.088-1.733-.042-2.788.008-1.811.085-3.864.181-5.708-.301-1.972-.515-3.18-1.53-3.823-2.116-.121.466-.186 1.124.167 1.503.466.502.596.882.747 1.322.142.417.32.934.877 1.835.515.831 1.189.85 2.248.814.7-.024 1.493-.051 2.194.357 1.227.714.945 1.584.76 2.159-.101.311-.189.582-.123.864.217.027.823-.158 1.274-.296 1.037-.315 2.456-.748 3.889-.514.8.131 1.29.371 1.541.755.293.448.17.926.071 1.309-.13.504-.118.602.092.746.803.554 1.535.709 2.548.923.428.09.912.193 1.457.339.851.227 1.446.664 1.768 1.298.491.963.356 2.351-.425 4.366a12.234 12.234 0 0 0-.819 4.241v.016c0 .435.203.828.521 1.26 2.772 2.889 4.337 6.07 4.479 9.206.027.606.005 1.244-.055 1.89.177.705.722 1.13 1.243 1.303.649.215 1.559.144 2.168-.703a40.03 40.03 0 0 0 3.976-6.864 15.13 15.13 0 0 0 .794-2.18c-.241-.319-1.416-1.798-3.442-3.162-.239.106-1.685.722-2.966.796-.639.037-1.461.059-1.747-.048l.353-.937s-.011-.007-.041-.014c.011.003.295.063 1.376 0 .673-.04 1.43-.265 1.961-.454-2.641-1.521-3.582-1.745-3.591-1.747a.503.503 0 0 1-.382-.594.498.498 0 0 1 .586-.386c.109.022 1.15.265 4.102 1.984a16.68 16.68 0 0 1 4.078 3.333Zm-9.695 19.12c.573-.254 1.96-.937 3.341-2.12 1.381-1.183 2.388-2.564 2.789-3.154l-1.508-1.874c-.527.686-1.384 1.787-1.989 2.49a22.854 22.854 0 0 1-3.513 3.25.504.504 0 0 1-.099.057c-.077.058-.178.13-.306.215l1.285 1.136Zm-.103-3.33a20.558 20.558 0 0 0 1.976-1.98c.405-.47.938-1.14 1.401-1.733a2.993 2.993 0 0 1-1.121-.152 2.94 2.94 0 0 1-1.132-.683c-.29 1.725-.755 3.382-1.124 4.548Zm-1.453 1.158c.251-.685 1.454-4.093 1.77-7.227a3.026 3.026 0 0 1-.048-.606 13.988 13.988 0 0 0-.207-2.746c-.575-3.138-2.295-5.183-3.323-6.405a23.335 23.335 0 0 1-.478-.58l-.127-.165a24.69 24.69 0 0 0-2.846-2.507c-4.191-3.176-6.195-2.978-7.158-2.883l-.14.013c-.249.023-.701.162-1.178.31-1.241.384-2.941.91-4.195.413-1.158-.459-1.262-1.627-1.363-2.758-.072-.81-.147-1.648-.58-2.302-.93-1.4-3.323-.694-4.589-.057-.501.252-.877.563-1.209.837-.569.47-1.158.955-2.045.733-.567-.142-.934-.535-1.288-.914-.449-.48-.838-.896-1.641-.877-.796.02-.88.244-1.034.652-.103.274-.231.614-.566.866-.598.448-1.103.192-1.473.005-.264-.134-.514-.26-.888-.255-.469.007-1.23.732-1.758 1.385.596.509 1.654 1.698 2.838 4.343.676 1.51.814 2.652.96 3.86.228 1.89.486 4.031 2.994 8.374 2.945 5.102 6.688 7.264 8.925 8.556.287.166.547.316.772.453.18.11.6.314.937.477.244.118.47.228.609.302 2.091 1.12 4.856 1.596 8.227 1.418-2.526-.75-6.282-2.28-9.772-5.308-5.85-5.077-9.043-14.94-9.176-15.358a.5.5 0 0 1 .955-.304c.03.095 2.934 9.061 8.063 14.148.325-.986.976-3.275.611-4.867a72.434 72.434 0 0 0-.417-1.72c-.311-1.234-.535-2.127-.576-3.177v-.02a.5.5 0 0 1 1.001-.02c.036.902.231 1.716.505 2.807l.937-.975a.5.5 0 1 1 .723.693l-1.374 1.43c.057.24.118.492.179.76.496 2.178-.569 5.245-.787 5.835l.014.013a24.71 24.71 0 0 0 5.642 3.652c-.727-1.334-1.665-3.513-.972-4.9.46-.92 1.288-1.62 2.089-2.299.875-.741 1.702-1.441 2.012-2.358a.502.502 0 0 1 .95.32c-.4 1.18-1.373 2.005-2.314 2.802-.342.289-.675.571-.972.862.651.21 1.882.56 2.888.57 1.432.017 3.459-.697 3.479-.704a.5.5 0 1 1 .336.943c-.089.032-2.214.781-3.826.763-1.415-.016-3.122-.59-3.573-.75a3.16 3.16 0 0 0-.172.299c-.623 1.249.977 4.117 1.586 5.024.023.034.042.07.055.108 2.852 1.13 4.967 1.405 5.004 1.41l.014.001c4.536-.69 6.565-2.07 6.99-2.395Zm-3.162-19.82a13.26 13.26 0 0 1 .884-4.43c.653-1.683.809-2.878.466-3.55-.19-.376-.561-.632-1.134-.786a25.765 25.765 0 0 0-1.404-.326c-1.042-.22-1.943-.41-2.91-1.078-.817-.564-.615-1.35-.493-1.82.052-.203.111-.433.059-.512-.021-.032-.162-.199-.863-.314-1.202-.196-2.44.18-3.434.484-.923.281-1.59.484-2.088.207a.92.92 0 0 1-.442-.588c-.151-.576.006-1.062.132-1.453.176-.547.219-.678-.311-.987-.451-.262-1.036-.242-1.655-.22-.953.032-2.123.073-2.963-1.038-.659.364-2.908 1.687-4.669 3.694-1.853 2.112-3.27 4.915-3.601 5.596.038.016.076.03.115.04.365.091.583-.056 1.163-.534.354-.293.796-.657 1.396-.959 1.94-.976 4.643-1.458 5.876.398.574.865.664 1.875.744 2.766.096 1.077.177 1.696.734 1.917.925.367 2.43-.1 3.529-.44.552-.17 1.029-.318 1.384-.35l.131-.013c1.091-.107 3.359-.33 7.863 3.082.522.397 1.019.801 1.491 1.214ZM610.821 58.744c0 2.237-.484 4.433-1.452 6.57a41.047 41.047 0 0 1-4.075 7.037 3.012 3.012 0 0 1-.221.273l1.909 2.371a.5.5 0 0 1 .037.575c-.051.082-1.256 2.032-3.183 3.682-1.934 1.657-3.833 2.383-3.913 2.413a.502.502 0 0 1-.509-.094l-1.648-1.457a.469.469 0 0 1-.099-.12c-1.451.745-4.15 1.745-8.593 2.106-3.935.32-7.162-.179-9.591-1.48-.13-.069-.343-.172-.572-.283-.394-.19-.801-.388-1.023-.523-.219-.134-.471-.28-.751-.442-2.171-1.254-6.212-3.588-9.291-8.922-2.61-4.52-2.881-6.77-3.121-8.754-.142-1.18-.265-2.2-.88-3.571-1.562-3.49-2.841-4.188-2.853-4.194a.513.513 0 0 1-.26-.326.5.5 0 0 1 .07-.407c.253-.366 1.58-2.191 2.862-2.211.622-.01 1.047.206 1.357.363.319.161.326.156.417.088.098-.074.151-.207.231-.418.189-.504.475-1.265 1.948-1.3 1.172-.029 1.827.59 2.302 1.093.496-.995 1.851-3.546 3.626-5.57 1.147-1.306 2.487-2.331 3.41-2.961.703-.48 1.167-.77 1.485-.936-.35-.644-.5-1.083-.617-1.423-.136-.4-.212-.62-.533-.966-1.068-1.15-.229-3.03-.071-3.257a.537.537 0 0 1 .383-.229c.287-.032.465.132.787.43.536.495 1.652 1.525 3.545 2.02 1.697.443 3.668.35 5.408.27 1.098-.053 2.135-.101 2.955-.002 2.68.323 8.257.995 12.841 5.106a25.556 25.556 0 0 1 5.45 6.985.489.489 0 0 1 .076.146c.326.63.616 1.264.867 1.896.86 2.168 1.29 4.314 1.29 6.422Zm-1.284 2.749c.701-3.74-.139-7.38-1.744-10.554-.448-.22-1.948-.857-4.216-.81-2.673.056-3.517.52-3.525.524a.506.506 0 0 1-.682-.176.496.496 0 0 1 .158-.677c.099-.063 1.052-.61 4.028-.671 1.476-.03 2.656.2 3.487.45a24.314 24.314 0 0 0-4.574-5.539 16.846 16.846 0 0 0-2.686-1.964c-.449.183-1.744.595-3.918.371-2.533-.26-3.914-.356-3.927-.357a.5.5 0 1 1 .068-.998c.014 0 1.41.097 3.962.36 1.115.114 1.962.045 2.545-.06-3.276-1.6-6.507-1.99-8.336-2.21-.737-.088-1.733-.042-2.788.008-1.811.085-3.864.181-5.708-.301-1.971-.515-3.18-1.53-3.823-2.116-.121.466-.186 1.124.167 1.503.466.502.596.882.747 1.322.142.417.32.934.877 1.835.515.831 1.189.85 2.248.814.7-.024 1.493-.051 2.195.357 1.226.714.944 1.584.759 2.159-.101.311-.188.582-.123.864.217.027.824-.158 1.275-.296 1.036-.315 2.456-.748 3.888-.514.801.131 1.29.371 1.541.755.293.448.171.926.071 1.309-.129.504-.118.602.093.746.802.554 1.534.709 2.548.923.427.09.911.193 1.456.339.851.227 1.446.664 1.769 1.298.49.963.355 2.351-.425 4.366a12.239 12.239 0 0 0-.82 4.241v.016c0 .435.203.828.521 1.26 2.773 2.889 4.337 6.07 4.479 9.206.028.606.005 1.244-.055 1.89.177.705.723 1.13 1.244 1.303.648.215 1.558.144 2.167-.703a40.03 40.03 0 0 0 3.976-6.864 15.13 15.13 0 0 0 .794-2.18c-.241-.319-1.416-1.798-3.442-3.162-.239.106-1.685.722-2.966.796-.639.037-1.461.059-1.747-.048l.353-.937s-.011-.007-.041-.014c.011.003.295.063 1.376 0 .673-.04 1.43-.265 1.961-.454-2.641-1.521-3.582-1.745-3.591-1.747a.503.503 0 0 1-.382-.594.498.498 0 0 1 .586-.386c.109.022 1.15.265 4.102 1.984a16.68 16.68 0 0 1 4.078 3.333Zm-9.695 19.12c.573-.254 1.96-.937 3.342-2.12 1.38-1.183 2.387-2.564 2.788-3.154l-1.508-1.874c-.527.686-1.384 1.787-1.989 2.49-1.596 1.857-3.435 3.195-3.512 3.25a.542.542 0 0 1-.1.057c-.077.058-.178.13-.306.215l1.285 1.136Zm-.103-3.33a20.558 20.558 0 0 0 1.976-1.98c.405-.47.938-1.14 1.401-1.733a2.985 2.985 0 0 1-1.12-.152 2.944 2.944 0 0 1-1.133-.683c-.29 1.725-.755 3.382-1.124 4.548Zm-1.453 1.158c.251-.685 1.454-4.093 1.77-7.227a3.101 3.101 0 0 1-.048-.606 13.911 13.911 0 0 0-.207-2.746c-.575-3.138-2.295-5.183-3.322-6.405a21.485 21.485 0 0 1-.479-.58l-.126-.165a24.786 24.786 0 0 0-2.847-2.507c-4.191-3.176-6.195-2.978-7.158-2.883l-.14.013c-.249.023-.7.162-1.178.31-1.241.384-2.941.91-4.195.413-1.158-.459-1.262-1.627-1.362-2.758-.073-.81-.148-1.648-.581-2.302-.93-1.4-3.322-.694-4.589-.057-.501.252-.877.563-1.209.837-.569.47-1.158.955-2.045.733-.567-.142-.933-.535-1.288-.914-.449-.48-.838-.896-1.641-.877-.796.02-.88.244-1.034.652-.102.274-.23.614-.566.866-.598.448-1.103.192-1.473.005-.264-.134-.514-.26-.888-.255-.469.007-1.23.732-1.758 1.385.597.509 1.654 1.698 2.839 4.343.676 1.51.813 2.652.959 3.86.228 1.89.487 4.031 2.994 8.374 2.945 5.102 6.688 7.264 8.925 8.556.287.166.547.316.772.453.181.11.6.314.937.477.244.118.47.228.609.302 2.091 1.12 4.856 1.596 8.227 1.418-2.526-.75-6.281-2.28-9.772-5.308-5.85-5.077-9.043-14.94-9.176-15.358a.5.5 0 0 1 .955-.304c.031.095 2.934 9.061 8.063 14.148.325-.986.976-3.275.612-4.867a77.22 77.22 0 0 0-.418-1.72c-.31-1.234-.535-2.127-.576-3.177v-.02a.5.5 0 0 1 1.002-.02c.035.902.23 1.716.504 2.807l.937-.975a.502.502 0 0 1 .724.693l-1.375 1.43c.058.24.118.492.179.76.497 2.178-.569 5.245-.787 5.835l.014.013a24.71 24.71 0 0 0 5.642 3.652c-.726-1.334-1.664-3.513-.971-4.9.46-.92 1.287-1.62 2.088-2.299.875-.741 1.702-1.441 2.012-2.358a.502.502 0 0 1 .95.32c-.4 1.18-1.373 2.005-2.314 2.802-.342.289-.675.571-.972.862.651.21 1.883.56 2.888.57 1.432.017 3.459-.697 3.479-.704a.5.5 0 1 1 .337.943c-.09.032-2.215.781-3.827.763-1.415-.016-3.122-.59-3.573-.75a3.15 3.15 0 0 0-.171.299c-.624 1.249.976 4.117 1.586 5.024.023.034.041.07.054.108 2.853 1.13 4.968 1.405 5.005 1.41l.014.001c4.535-.69 6.564-2.07 6.989-2.395Zm-3.162-19.82c.026-1.082.208-2.681.885-4.43.652-1.683.808-2.878.466-3.55-.191-.376-.562-.632-1.135-.786a25.765 25.765 0 0 0-1.404-.326c-1.042-.22-1.942-.41-2.91-1.078-.817-.564-.614-1.35-.493-1.82.052-.203.112-.433.06-.512-.021-.032-.162-.199-.864-.314-1.202-.196-2.44.18-3.434.484-.923.281-1.59.484-2.087.207a.913.913 0 0 1-.442-.588c-.152-.576.005-1.062.131-1.453.177-.547.22-.678-.311-.987-.451-.262-1.035-.242-1.654-.22-.953.032-2.124.073-2.964-1.038-.659.364-2.907 1.687-4.669 3.694-1.853 2.112-3.269 4.915-3.601 5.596.038.016.076.03.115.04.365.091.583-.056 1.163-.534.354-.293.796-.657 1.397-.959 1.94-.976 4.642-1.458 5.875.398.574.865.664 1.875.744 2.766.096 1.077.177 1.696.734 1.917.925.367 2.43-.1 3.529-.44.552-.17 1.03-.318 1.384-.35l.131-.013c1.091-.107 3.359-.33 7.863 3.082.522.397 1.02.801 1.491 1.214ZM679.503 100.404c0 2.237-.484 4.433-1.452 6.57a41.014 41.014 0 0 1-4.075 7.037 3.097 3.097 0 0 1-.221.273l1.909 2.371a.5.5 0 0 1 .037.575c-.051.082-1.256 2.031-3.183 3.682-1.934 1.656-3.833 2.382-3.913 2.413a.503.503 0 0 1-.509-.094l-1.648-1.457a.487.487 0 0 1-.099-.12c-1.451.745-4.15 1.745-8.593 2.106-3.935.319-7.162-.179-9.591-1.48-.13-.069-.343-.172-.572-.283-.394-.191-.801-.388-1.023-.524-.219-.134-.471-.279-.751-.441-2.171-1.254-6.212-3.589-9.291-8.922-2.61-4.52-2.881-6.77-3.121-8.754-.142-1.18-.265-2.199-.879-3.571-1.563-3.49-2.842-4.188-2.854-4.195a.509.509 0 0 1-.19-.733c.253-.365 1.58-2.19 2.862-2.21.622-.01 1.047.205 1.358.363.318.161.326.155.417.087.097-.073.15-.206.23-.417.189-.504.476-1.266 1.948-1.3 1.172-.03 1.827.59 2.302 1.092.497-.994 1.852-3.545 3.627-5.568 1.146-1.307 2.487-2.332 3.409-2.963.703-.48 1.167-.77 1.485-.935a8.272 8.272 0 0 1-.616-1.424c-.137-.4-.213-.62-.534-.965-1.067-1.15-.228-3.03-.071-3.258a.537.537 0 0 1 .383-.228c.287-.032.465.132.787.43.537.495 1.652 1.525 3.545 2.02 1.697.443 3.669.35 5.408.269 1.098-.052 2.135-.1 2.955-.001 2.68.323 8.257.995 12.841 5.106a25.556 25.556 0 0 1 5.45 6.984.516.516 0 0 1 .077.147c.325.63.615 1.263.866 1.896.86 2.168 1.29 4.314 1.29 6.422Zm-1.284 2.748c.701-3.74-.139-7.38-1.744-10.553-.448-.22-1.948-.857-4.216-.81-2.672.056-3.517.519-3.525.523a.506.506 0 0 1-.682-.175.495.495 0 0 1 .159-.678c.099-.062 1.052-.609 4.027-.67 1.476-.031 2.656.2 3.487.45a24.288 24.288 0 0 0-4.574-5.54 16.84 16.84 0 0 0-2.686-1.964c-.448.184-1.744.596-3.918.372-2.533-.26-3.914-.357-3.927-.358a.5.5 0 1 1 .068-.998c.014 0 1.41.098 3.962.36 1.115.115 1.962.046 2.545-.059-3.276-1.6-6.507-1.99-8.336-2.21-.736-.089-1.733-.042-2.788.007-1.811.085-3.864.182-5.708-.3-1.971-.516-3.18-1.53-3.823-2.117-.121.467-.186 1.124.168 1.504.465.502.595.882.746 1.322.142.416.32.934.877 1.835.515.83 1.19.85 2.248.814.7-.024 1.493-.052 2.195.357 1.226.714.944 1.584.759 2.159-.101.31-.188.582-.123.864.217.026.824-.159 1.275-.296 1.036-.316 2.456-.748 3.888-.514.801.131 1.29.37 1.541.755.293.448.171.925.071 1.308-.129.504-.118.602.093.747.802.554 1.534.708 2.548.923.427.09.911.193 1.456.338.851.228 1.446.664 1.769 1.299.49.963.355 2.35-.425 4.365a12.24 12.24 0 0 0-.82 4.242v.016c0 .435.203.827.521 1.259 2.773 2.89 4.337 6.071 4.479 9.207.028.606.005 1.244-.055 1.89.178.705.723 1.129 1.244 1.302.648.216 1.558.145 2.168-.702a40.092 40.092 0 0 0 3.975-6.865c.329-.726.592-1.454.794-2.179-.241-.319-1.416-1.798-3.442-3.162-.239.105-1.685.721-2.966.796-.639.037-1.461.058-1.746-.049l.352-.937s-.011-.006-.041-.013c.011.003.295.063 1.377-.001.672-.039 1.429-.264 1.96-.453-2.641-1.522-3.582-1.746-3.591-1.748a.503.503 0 0 1-.382-.593.499.499 0 0 1 .587-.386c.109.022 1.149.264 4.101 1.984a16.69 16.69 0 0 1 4.078 3.332Zm-9.695 19.121c.573-.255 1.96-.938 3.342-2.121 1.38-1.183 2.387-2.563 2.789-3.154l-1.508-1.873c-.528.686-1.385 1.787-1.989 2.489-1.597 1.858-3.436 3.195-3.513 3.252a.552.552 0 0 1-.1.056 6.8 6.8 0 0 1-.305.215l1.284 1.136Zm-.102-3.33a20.732 20.732 0 0 0 1.975-1.981c.405-.47.938-1.14 1.401-1.733a2.985 2.985 0 0 1-1.12-.151 2.94 2.94 0 0 1-1.133-.683c-.289 1.725-.754 3.382-1.123 4.548Zm-1.453 1.158c.251-.686 1.453-4.093 1.769-7.228a3.18 3.18 0 0 1-.048-.606 13.903 13.903 0 0 0-.207-2.745c-.574-3.139-2.294-5.184-3.322-6.405a11.836 11.836 0 0 1-.605-.746 24.785 24.785 0 0 0-2.847-2.506c-4.191-3.176-6.195-2.978-7.158-2.884l-.14.014c-.249.022-.7.162-1.177.31-1.242.384-2.942.91-4.196.413-1.157-.459-1.262-1.628-1.362-2.758-.072-.81-.147-1.649-.581-2.302-.93-1.4-3.322-.695-4.589-.057-.5.252-.877.562-1.209.836-.569.47-1.158.956-2.045.733-.567-.142-.933-.534-1.288-.913-.449-.481-.838-.897-1.641-.877-.796.019-.88.244-1.034.652-.102.273-.23.614-.566.865-.597.449-1.103.192-1.472.006-.265-.135-.515-.261-.889-.255-.469.007-1.23.732-1.758 1.385.597.508 1.654 1.697 2.839 4.343.676 1.51.814 2.651.959 3.86.228 1.889.487 4.031 2.994 8.374 2.945 5.101 6.688 7.264 8.925 8.555.287.167.547.317.772.454.181.11.6.314.937.477.244.118.471.228.609.302 2.091 1.12 4.856 1.596 8.227 1.417-2.526-.749-6.281-2.279-9.771-5.307-5.851-5.077-9.044-14.941-9.177-15.358a.501.501 0 0 1 .955-.304c.031.095 2.934 9.061 8.063 14.147.325-.985.976-3.274.612-4.866-.15-.655-.292-1.22-.418-1.719-.31-1.236-.535-2.128-.576-3.178v-.02a.5.5 0 0 1 1.002-.019c.035.901.23 1.715.504 2.806l.937-.976a.502.502 0 0 1 .724.693l-1.375 1.431c.058.239.118.492.179.76.497 2.178-.569 5.244-.787 5.835l.014.012a24.688 24.688 0 0 0 5.643 3.653c-.727-1.334-1.665-3.513-.972-4.9.46-.92 1.288-1.621 2.088-2.299.875-.741 1.702-1.441 2.013-2.358a.5.5 0 1 1 .949.321c-.4 1.18-1.373 2.003-2.314 2.8-.341.289-.675.572-.972.862.651.21 1.883.56 2.888.572 1.432.016 3.459-.698 3.48-.705a.501.501 0 0 1 .336.943c-.09.032-2.215.781-3.827.763-1.415-.016-3.122-.59-3.572-.751a2.993 2.993 0 0 0-.172.299c-.624 1.249.976 4.118 1.586 5.025.023.034.041.07.055.107 2.852 1.131 4.967 1.405 5.004 1.41l.014.002c4.536-.69 6.565-2.07 6.99-2.395Zm-3.163-19.821a13.29 13.29 0 0 1 .885-4.429c.652-1.683.809-2.878.466-3.551-.191-.375-.562-.632-1.135-.785a25.637 25.637 0 0 0-1.404-.326c-1.042-.22-1.942-.41-2.91-1.078-.817-.564-.614-1.35-.493-1.82.052-.203.112-.433.06-.512-.021-.032-.162-.2-.864-.314-1.202-.197-2.439.18-3.434.484-.923.28-1.589.484-2.087.207a.914.914 0 0 1-.442-.588c-.152-.576.005-1.062.131-1.453.177-.547.22-.678-.31-.987-.451-.263-1.036-.242-1.655-.22-.953.032-2.124.073-2.964-1.039-.659.364-2.907 1.687-4.669 3.694-1.853 2.112-3.269 4.916-3.601 5.597.038.016.076.03.115.04.366.09.584-.056 1.163-.534.355-.293.796-.657 1.397-.96 1.94-.976 4.642-1.457 5.875.398.574.865.664 1.876.744 2.767.096 1.076.177 1.696.734 1.916.926.368 2.43-.098 3.529-.439.552-.17 1.03-.318 1.384-.35l.131-.013c1.091-.108 3.359-.33 7.863 3.082.522.396 1.02.801 1.491 1.213ZM751 58.744c0 2.237-.484 4.433-1.452 6.57a40.982 40.982 0 0 1-4.075 7.037 3.012 3.012 0 0 1-.221.273l1.909 2.371a.5.5 0 0 1 .037.575c-.051.082-1.256 2.032-3.183 3.682-1.934 1.657-3.833 2.383-3.913 2.413a.502.502 0 0 1-.509-.094l-1.648-1.457a.514.514 0 0 1-.099-.12c-1.451.745-4.149 1.745-8.593 2.106-3.935.32-7.162-.179-9.591-1.48a19.1 19.1 0 0 0-.572-.283c-.394-.19-.801-.388-1.023-.523-.219-.134-.471-.28-.751-.442-2.171-1.254-6.212-3.588-9.291-8.922-2.61-4.52-2.881-6.77-3.12-8.754-.143-1.18-.266-2.2-.88-3.571-1.563-3.49-2.841-4.188-2.854-4.194a.509.509 0 0 1-.19-.733c.253-.366 1.58-2.191 2.862-2.211.622-.01 1.048.206 1.358.363.318.161.326.156.417.088.097-.074.15-.207.23-.418.19-.504.476-1.265 1.948-1.3 1.173-.029 1.827.59 2.302 1.093.497-.995 1.852-3.546 3.627-5.57 1.146-1.306 2.487-2.331 3.409-2.961.703-.48 1.167-.77 1.485-.936a8.275 8.275 0 0 1-.616-1.423c-.137-.4-.213-.62-.534-.966-1.067-1.15-.228-3.03-.071-3.257a.539.539 0 0 1 .383-.229c.287-.032.465.132.787.43.537.495 1.652 1.525 3.546 2.02 1.696.443 3.668.35 5.407.27 1.098-.053 2.135-.101 2.955-.002 2.68.323 8.257.995 12.841 5.106a25.556 25.556 0 0 1 5.45 6.985.516.516 0 0 1 .077.146c.325.63.615 1.264.866 1.896.86 2.168 1.29 4.314 1.29 6.422Zm-1.284 2.749c.701-3.74-.139-7.38-1.744-10.554-.448-.22-1.948-.857-4.216-.81-2.672.056-3.516.52-3.524.524a.507.507 0 0 1-.683-.176.495.495 0 0 1 .159-.677c.099-.063 1.052-.61 4.027-.671 1.476-.03 2.656.2 3.487.45a24.288 24.288 0 0 0-4.574-5.539 16.846 16.846 0 0 0-2.686-1.964c-.448.183-1.743.595-3.918.371-2.533-.26-3.914-.356-3.927-.357a.5.5 0 1 1 .068-.998c.014 0 1.41.097 3.962.36 1.115.114 1.962.045 2.545-.06-3.276-1.6-6.507-1.99-8.336-2.21-.736-.088-1.733-.042-2.788.008-1.811.085-3.863.181-5.708-.301-1.971-.515-3.18-1.53-3.823-2.116-.121.466-.185 1.124.168 1.503.465.502.595.882.746 1.322.143.417.32.934.877 1.835.515.831 1.19.85 2.248.814.7-.024 1.494-.051 2.195.357 1.226.714.944 1.584.759 2.159-.1.311-.188.582-.123.864.217.027.824-.158 1.275-.296 1.036-.315 2.456-.748 3.888-.514.801.131 1.29.371 1.541.755.293.448.171.926.072 1.309-.13.504-.118.602.092.746.802.554 1.534.709 2.548.923.427.09.911.193 1.456.339.851.227 1.446.664 1.769 1.298.49.963.355 2.351-.425 4.366a12.239 12.239 0 0 0-.82 4.241v.016c0 .435.203.828.521 1.26 2.773 2.889 4.337 6.07 4.479 9.206.028.606.005 1.244-.054 1.89.177.705.722 1.13 1.243 1.303.648.215 1.558.144 2.168-.703a40.024 40.024 0 0 0 3.975-6.864 15.13 15.13 0 0 0 .794-2.18c-.241-.319-1.415-1.798-3.441-3.162-.239.106-1.686.722-2.967.796-.639.037-1.461.059-1.746-.048l.352-.937s-.011-.007-.041-.014c.012.003.295.063 1.377 0 .672-.04 1.429-.265 1.96-.454-2.641-1.521-3.582-1.745-3.591-1.747a.503.503 0 0 1-.382-.594.499.499 0 0 1 .587-.386c.109.022 1.149.265 4.101 1.984a16.68 16.68 0 0 1 4.078 3.333Zm-9.694 19.12a14.233 14.233 0 0 0 3.341-2.12c1.381-1.183 2.388-2.564 2.789-3.154l-1.508-1.874c-.528.686-1.385 1.787-1.989 2.49a22.854 22.854 0 0 1-3.513 3.25.542.542 0 0 1-.1.057c-.077.058-.178.13-.305.215l1.285 1.136Zm-.103-3.33a20.671 20.671 0 0 0 1.975-1.98c.405-.47.938-1.14 1.401-1.733a2.988 2.988 0 0 1-1.12-.152 2.944 2.944 0 0 1-1.133-.683c-.289 1.725-.754 3.382-1.123 4.548Zm-1.453 1.158c.251-.685 1.453-4.093 1.77-7.227a3.1 3.1 0 0 1-.049-.606 13.911 13.911 0 0 0-.207-2.746c-.574-3.138-2.294-5.183-3.322-6.405a21.29 21.29 0 0 1-.605-.745 24.702 24.702 0 0 0-2.847-2.507c-4.191-3.176-6.195-2.978-7.158-2.883l-.14.013c-.249.023-.7.162-1.177.31-1.242.384-2.941.91-4.196.413-1.157-.459-1.262-1.627-1.362-2.758-.072-.81-.147-1.648-.581-2.302-.93-1.4-3.322-.694-4.589-.057-.5.252-.877.563-1.209.837-.569.47-1.158.955-2.045.733-.567-.142-.933-.535-1.288-.914-.449-.48-.837-.896-1.64-.877-.797.02-.881.244-1.035.652-.102.274-.23.614-.566.866-.597.448-1.103.192-1.472.005-.265-.134-.515-.26-.889-.255-.469.007-1.23.732-1.757 1.385.596.509 1.653 1.698 2.838 4.343.676 1.51.814 2.652.959 3.86.229 1.89.487 4.031 2.994 8.374 2.945 5.102 6.688 7.264 8.925 8.556.287.166.547.316.772.453.181.11.6.314.937.477.245.118.471.228.609.302 2.091 1.12 4.856 1.596 8.227 1.418-2.526-.75-6.281-2.28-9.771-5.308-5.851-5.077-9.044-14.94-9.177-15.358a.5.5 0 0 1 .955-.304c.031.095 2.934 9.061 8.063 14.148.325-.986.976-3.275.612-4.867-.15-.654-.292-1.22-.417-1.72-.311-1.234-.536-2.127-.577-3.177v-.02a.5.5 0 0 1 1.002-.02c.035.902.23 1.716.504 2.807l.937-.975a.502.502 0 0 1 .724.693l-1.375 1.43c.058.24.118.492.179.76.497 2.178-.569 5.245-.787 5.835l.014.013a24.694 24.694 0 0 0 5.643 3.652c-.727-1.334-1.665-3.513-.972-4.9.46-.92 1.288-1.62 2.088-2.299.875-.741 1.702-1.441 2.013-2.358a.5.5 0 0 1 .949.32c-.4 1.18-1.373 2.005-2.314 2.802-.341.289-.675.571-.972.862.651.21 1.883.56 2.888.57 1.432.017 3.459-.697 3.48-.704a.502.502 0 0 1 .336.943c-.09.032-2.215.781-3.827.763-1.415-.016-3.122-.59-3.572-.75a2.957 2.957 0 0 0-.172.299c-.624 1.249.976 4.117 1.586 5.024a.52.52 0 0 1 .055.108c2.852 1.13 4.967 1.405 5.004 1.41l.014.001c4.536-.69 6.565-2.07 6.99-2.395Zm-3.163-19.82c.027-1.082.208-2.681.885-4.43.652-1.683.809-2.878.466-3.55-.191-.376-.562-.632-1.134-.786a25.786 25.786 0 0 0-1.405-.326c-1.042-.22-1.942-.41-2.91-1.078-.817-.564-.614-1.35-.493-1.82.052-.203.112-.433.06-.512-.021-.032-.162-.199-.864-.314-1.202-.196-2.439.18-3.434.484-.923.281-1.589.484-2.087.207a.913.913 0 0 1-.442-.588c-.152-.576.005-1.062.131-1.453.177-.547.22-.678-.31-.987-.451-.262-1.036-.242-1.655-.22-.953.032-2.124.073-2.964-1.038-.659.364-2.907 1.687-4.668 3.694-1.854 2.112-3.27 4.915-3.601 5.596.037.016.075.03.115.04.365.091.583-.056 1.162-.534.355-.293.796-.657 1.397-.959 1.94-.976 4.643-1.458 5.875.398.574.865.664 1.875.744 2.766.096 1.077.177 1.696.734 1.917.926.367 2.43-.1 3.529-.44.552-.17 1.03-.318 1.384-.35l.132-.013c1.09-.107 3.358-.33 7.862 3.082.522.397 1.02.801 1.491 1.214Z" fill="#DFE2EB"/></svg>