<svg width="20" height="18" viewBox="0 0 20 18" fill="none" xmlns="http://www.w3.org/2000/svg">
<path d="M17.4754 1.0669H16.1634V0.74585C16.1634 0.422256 15.9011 0.159912 15.5775 0.159912C15.2539 0.159912 14.9916 0.422256 14.9916 0.74585V1.0669H13.3747V0.74585C13.3747 0.422256 13.1123 0.159912 12.7887 0.159912C12.4652 0.159912 12.2028 0.422256 12.2028 0.74585V1.0669H10.5859V0.74585C10.5859 0.422256 10.3236 0.159912 10 0.159912C9.67641 0.159912 9.41406 0.422256 9.41406 0.74585V1.0669H7.79719V0.74585C7.79719 0.422256 7.53484 0.159912 7.21125 0.159912C6.88766 0.159912 6.62531 0.422256 6.62531 0.74585V1.0669H5.00844V0.74585C5.00844 0.422256 4.74609 0.159912 4.4225 0.159912C4.09891 0.159912 3.83656 0.422256 3.83656 0.74585V1.0669H2.52461C1.13254 1.0669 0 2.19944 0 3.59147V15.3155C0 16.7076 1.13254 17.8401 2.52461 17.8401H17.4754C18.8675 17.8401 20 16.7075 20 15.3155V3.59147C20 2.19944 18.8675 1.0669 17.4754 1.0669ZM18.8281 15.3155C18.8281 16.0614 18.2213 16.6682 17.4754 16.6682H2.52461C1.77871 16.6682 1.17188 16.0614 1.17188 15.3155V5.73233H18.8281V15.3155ZM18.8281 4.56046H1.17188V3.59147C1.17188 2.84562 1.77871 2.23878 2.52461 2.23878H3.83656V2.4653C3.83656 2.7889 4.09891 3.05124 4.4225 3.05124C4.74609 3.05124 5.00844 2.7889 5.00844 2.4653V2.23878H6.62531V2.4653C6.62531 2.7889 6.88766 3.05124 7.21125 3.05124C7.53484 3.05124 7.79719 2.7889 7.79719 2.4653V2.23878H9.41406V2.4653C9.41406 2.7889 9.67641 3.05124 10 3.05124C10.3236 3.05124 10.5859 2.7889 10.5859 2.4653V2.23878H12.2028V2.4653C12.2028 2.7889 12.4652 3.05124 12.7887 3.05124C13.1123 3.05124 13.3747 2.7889 13.3747 2.4653V2.23878H14.9916V2.4653C14.9916 2.7889 15.2539 3.05124 15.5775 3.05124C15.9011 3.05124 16.1634 2.7889 16.1634 2.4653V2.23878H17.4754C18.2213 2.23878 18.8281 2.84562 18.8281 3.59147V4.56046Z" fill="#52555F"/>
</svg>
