<svg width="84" height="21" viewBox="0 0 84 21" fill="none" xmlns="http://www.w3.org/2000/svg">
<path d="M36.2053 14.6044C35.8453 15.0738 35.3463 15.4292 34.7083 15.6708C34.0702 15.9123 33.3456 16.0331 32.5344 16.0331C31.7004 16.0331 30.9622 15.844 30.3196 15.4657C29.677 15.0874 29.1803 14.5474 28.8293 13.8456C28.483 13.1392 28.303 12.3166 28.2893 11.3778V10.5985C28.2893 9.0946 28.6493 7.9211 29.3694 7.078C30.0894 6.23035 31.0943 5.80652 32.384 5.80652C33.4915 5.80652 34.371 6.07996 35.0227 6.62683C35.6744 7.17371 36.0663 7.96212 36.1985 8.99207H34.5032C34.3118 7.7935 33.6168 7.19421 32.4182 7.19421C31.6435 7.19421 31.0533 7.47449 30.6477 8.03503C30.2467 8.59102 30.0393 9.40906 30.0256 10.4891V11.2548C30.0256 12.3303 30.2512 13.1665 30.7024 13.7635C31.1581 14.356 31.7893 14.6522 32.5959 14.6522C33.4801 14.6522 34.109 14.4517 34.4827 14.0507V12.1024H32.4319V10.7899H36.2053V14.6044ZM37.914 12.1298C37.914 11.4052 38.0576 10.7535 38.3447 10.1747C38.6318 9.59135 39.0351 9.14473 39.5547 8.83484C40.0742 8.52039 40.6712 8.36316 41.3457 8.36316C42.3437 8.36316 43.1526 8.68445 43.7724 9.32703C44.3968 9.9696 44.734 10.8218 44.7842 11.8837L44.791 12.2733C44.791 13.0025 44.6497 13.6542 44.3672 14.2284C44.0892 14.8026 43.6881 15.2469 43.164 15.5614C42.6445 15.8759 42.0429 16.0331 41.3593 16.0331C40.3157 16.0331 39.4795 15.6867 38.8506 14.994C38.2262 14.2968 37.914 13.3693 37.914 12.2118V12.1298ZM39.5752 12.2733C39.5752 13.0344 39.7324 13.6314 40.0468 14.0643C40.3613 14.4927 40.7988 14.7069 41.3593 14.7069C41.9199 14.7069 42.3551 14.4882 42.665 14.0507C42.9795 13.6132 43.1367 12.9729 43.1367 12.1298C43.1367 11.3824 42.9749 10.7899 42.6513 10.3524C42.3323 9.91492 41.8971 9.69617 41.3457 9.69617C40.8034 9.69617 40.3727 9.91264 40.0537 10.3456C39.7347 10.774 39.5752 11.4165 39.5752 12.2733ZM46.1647 12.1298C46.1647 11.4052 46.3083 10.7535 46.5954 10.1747C46.8825 9.59135 47.2858 9.14473 47.8054 8.83484C48.3249 8.52039 48.9219 8.36316 49.5964 8.36316C50.5944 8.36316 51.4033 8.68445 52.0231 9.32703C52.6475 9.9696 52.9847 10.8218 53.0349 11.8837L53.0417 12.2733C53.0417 13.0025 52.9004 13.6542 52.6179 14.2284C52.3399 14.8026 51.9388 15.2469 51.4147 15.5614C50.8952 15.8759 50.2936 16.0331 49.61 16.0331C48.5664 16.0331 47.7302 15.6867 47.1013 14.994C46.4769 14.2968 46.1647 13.3693 46.1647 12.2118V12.1298ZM47.8259 12.2733C47.8259 13.0344 47.9831 13.6314 48.2975 14.0643C48.612 14.4927 49.0495 14.7069 49.61 14.7069C50.1706 14.7069 50.6058 14.4882 50.9157 14.0507C51.2302 13.6132 51.3874 12.9729 51.3874 12.1298C51.3874 11.3824 51.2256 10.7899 50.902 10.3524C50.583 9.91492 50.1478 9.69617 49.5964 9.69617C49.0541 9.69617 48.6234 9.91264 48.3044 10.3456C47.9854 10.774 47.8259 11.4165 47.8259 12.2733ZM54.4359 12.1434C54.4359 10.995 54.7048 10.079 55.2426 9.39539C55.7849 8.70723 56.5027 8.36316 57.3959 8.36316C58.239 8.36316 58.9021 8.6571 59.3852 9.245L59.4604 8.49988H60.9574V15.6708C60.9574 16.6415 60.6544 17.4071 60.0483 17.9677C59.4467 18.5282 58.6332 18.8085 57.6078 18.8085C57.0655 18.8085 56.5346 18.6945 56.015 18.4667C55.5001 18.2434 55.1081 17.9494 54.8393 17.5848L55.6254 16.5868C56.1358 17.1929 56.7647 17.496 57.5121 17.496C58.0636 17.496 58.4988 17.3456 58.8178 17.0448C59.1368 16.7486 59.2963 16.3111 59.2963 15.7323V15.2333C58.8178 15.7665 58.1798 16.0331 57.3822 16.0331C56.5164 16.0331 55.8077 15.689 55.2563 15.0009C54.7094 14.3127 54.4359 13.3602 54.4359 12.1434ZM56.0902 12.287C56.0902 13.0298 56.2406 13.6154 56.5414 14.0438C56.8468 14.4677 57.2683 14.6796 57.8061 14.6796C58.476 14.6796 58.9727 14.3925 59.2963 13.8182V10.5643C58.9818 10.0038 58.4897 9.72351 57.8197 9.72351C57.2729 9.72351 56.8468 9.93998 56.5414 10.3729C56.2406 10.8059 56.0902 11.4439 56.0902 12.287ZM64.7169 15.8964H63.0558V5.39636H64.7169V15.8964ZM70.0692 16.0331C69.0165 16.0331 68.162 15.7027 67.5057 15.0419C66.854 14.3765 66.5282 13.4924 66.5282 12.3895V12.1844C66.5282 11.4462 66.6695 10.7876 66.952 10.2089C67.2391 9.62553 67.6402 9.17208 68.1551 8.84851C68.6701 8.52494 69.2443 8.36316 69.8778 8.36316C70.8849 8.36316 71.662 8.68445 72.2088 9.32703C72.7603 9.9696 73.036 10.8788 73.036 12.0546V12.7245H68.203C68.2531 13.3352 68.4559 13.8182 68.8114 14.1737C69.1714 14.5292 69.6226 14.7069 70.1649 14.7069C70.926 14.7069 71.5458 14.3993 72.0243 13.7841L72.9198 14.6385C72.6236 15.0806 72.2271 15.4247 71.7303 15.6708C71.2381 15.9123 70.6844 16.0331 70.0692 16.0331ZM69.8709 9.69617C69.4152 9.69617 69.0461 9.85567 68.7635 10.1747C68.4855 10.4937 68.3078 10.938 68.2303 11.5077H71.3954V11.3846C71.3589 10.8287 71.2108 10.4094 70.951 10.1268C70.6913 9.83972 70.3312 9.69617 69.8709 9.69617Z" fill="black"/>
<g clip-path="url(#clip0_12_96)">
<path d="M17.6589 9.23038C17.737 9.23038 17.8003 9.29524 17.8003 9.37526V10.8964C17.8003 11.4657 17.7487 12.0223 17.6497 12.5623C16.8835 16.7568 13.2752 19.9267 8.95014 19.8961C4.09707 19.8619 0.213154 15.8462 0.223899 10.8761C0.234576 5.91493 4.16518 1.89636 9.0121 1.89636C11.3867 1.89636 13.5413 2.86112 15.1232 4.42825C15.1803 4.48481 15.1818 4.57805 15.1256 4.63556L13.0242 6.78751C12.9701 6.84292 12.8827 6.84436 12.8273 6.79032C11.8345 5.82251 10.4912 5.22833 9.0121 5.22833C5.95781 5.22833 3.49831 7.72921 3.47757 10.857C3.45673 14.0054 5.94271 16.5644 9.0121 16.5644C11.5025 16.5644 13.6089 14.8795 14.3034 12.5623H9.15357C9.07544 12.5623 9.0121 12.4975 9.0121 12.4175V9.37522C9.0121 9.29521 9.07544 9.23034 9.15357 9.23034H17.6589V9.23038Z" fill="#2196F3"/>
<path d="M17.6585 9.23041H16.5976C16.6757 9.23041 16.739 9.29527 16.739 9.37529V10.8964C16.739 11.4657 16.6874 12.0224 16.5884 12.5624C15.8575 16.5639 12.5397 19.6329 8.48071 19.8801C8.63602 19.8895 8.79235 19.895 8.94979 19.8961C13.2749 19.9267 16.8832 16.7568 17.6493 12.5624C17.7484 12.0224 17.8 11.4657 17.8 10.8964V9.37525C17.8 9.29527 17.7366 9.23041 17.6585 9.23041Z" fill="#1E88E5"/>
<path d="M3.98457 8.52268L1.31555 6.54775C2.81292 3.77423 5.69834 1.89636 9.01171 1.89636C11.3864 1.89636 13.5409 2.86112 15.1228 4.42825C15.1799 4.48481 15.1814 4.57805 15.1252 4.63556L13.0238 6.78751C12.9698 6.84281 12.8824 6.84453 12.8271 6.7906C11.8343 5.82261 10.4909 5.22837 9.01171 5.22837C6.78266 5.22837 4.86126 6.5778 3.98457 8.52268Z" fill="#F44336"/>
<path d="M3.21411 7.95253L3.98463 8.52266C4.78484 6.74747 6.45556 5.46898 8.43601 5.25927C8.45091 5.25762 8.46522 5.25561 8.48039 5.25414C8.30611 5.23719 8.12948 5.22833 7.95083 5.22833C5.9372 5.22833 4.18229 6.31547 3.21411 7.95253Z" fill="#E53935"/>
<path d="M14.0618 4.42825C14.1189 4.48481 14.1204 4.57805 14.0642 4.6356L12.3586 6.38226C12.522 6.50953 12.6784 6.64566 12.8269 6.79036C12.8823 6.84439 12.9697 6.84295 13.0238 6.78755L15.1252 4.6356C15.1813 4.57805 15.1798 4.48485 15.1227 4.42825C13.5409 2.86112 11.3863 1.89636 9.0117 1.89636C8.83349 1.89636 8.6567 1.90244 8.48114 1.91317C10.6452 2.04518 12.5986 2.97868 14.0618 4.42825Z" fill="#E53935"/>
<path d="M15.4585 17.0128C13.8536 18.7863 11.5591 19.8964 9.01176 19.8964C5.57109 19.8964 2.59229 17.8715 1.14972 14.9216L3.87459 13.0093C4.69227 15.0929 6.68438 16.5644 9.01176 16.5644C10.4723 16.5644 11.8006 15.9849 12.7895 15.0382L15.4585 17.0128Z" fill="#4CAF50"/>
<path d="M3.87467 13.0093L3.07117 13.5731C4.0044 15.3536 5.8396 16.5643 7.95087 16.5643C8.12941 16.5643 8.3059 16.5554 8.48012 16.5385C6.38437 16.3339 4.62929 14.9323 3.87467 13.0093Z" fill="#43A047"/>
<path d="M9.01181 19.8964C11.5592 19.8964 13.8537 18.7863 15.4585 17.0128L14.8048 16.5291C13.2979 18.4497 11.0373 19.7238 8.48267 19.88C8.65774 19.8907 8.83413 19.8964 9.01181 19.8964Z" fill="#43A047"/>
<path d="M3.47711 10.8963C3.47711 11.6431 3.61821 12.3563 3.87461 13.0093L1.14971 14.9215C0.557017 13.7104 0.223511 12.3432 0.223511 10.8963C0.223511 9.3191 0.619599 7.8367 1.31559 6.54773L3.9846 8.52267C3.65889 9.24446 3.47711 10.0489 3.47711 10.8963Z" fill="#FFC107"/>
<path d="M3.0711 13.5731L3.8746 13.0093C3.6182 12.3563 3.47711 11.6431 3.47711 10.8963C3.47711 10.0489 3.65888 9.24444 3.98459 8.52264L3.21408 7.95251C2.71373 8.79855 2.42334 9.79133 2.41627 10.857C2.40975 11.8398 2.64754 12.7651 3.0711 13.5731Z" fill="#FFB300"/>
</g>
<defs>
<clipPath id="clip0_12_96">
<rect width="17.5765" height="18" fill="white" transform="translate(0.223511 1.89636)"/>
</clipPath>
</defs>
</svg>
