<svg version="1.1" xmlns="http://www.w3.org/2000/svg">
    <symbol id="load" viewBox="0 0 36 36">
        <circle fill="var(--color1, #dfac14)" fill-opacity="0.4" cx="18" cy="4" r="3"/>
        <circle fill="var(--color1, #dfac14)" fill-opacity="0.55" cx="27.9" cy="8.1" r="3"/>
        <circle fill="var(--color1, #dfac14)" fill-opacity="0.7" cx="32" cy="18" r="3"/>
        <circle fill="var(--color1, #dfac14)" fill-opacity="0.85" cx="27.9" cy="27.9" r="3"/>
        <circle fill="var(--color1, #dfac14)" fill-opacity="0.95" cx="18" cy="32" r="3"/>
        <circle fill="var(--color1, #dfac14)" fill-opacity="1" cx="8.1" cy="27.9" r="3"/>
        <circle fill="var(--color1, #dfac14)" fill-opacity="0" cx="4" cy="18" r="3"/>
    </symbol>
    <symbol id="search" viewBox="0 0 32 32">
        <path fill="#dfac14" d="M31.008 27.231l-7.58-6.447c-0.784-0.705-1.622-1.029-2.299-0.998 1.789-2.096 2.87-4.815 2.87-7.787 0-6.627-5.373-12-12-12s-12 5.373-12 12 5.373 12 12 12c2.972 0 5.691-1.081 7.787-2.87-0.031 0.677 0.293 1.515 0.998 2.299l6.447 7.58c1.104 1.226 2.907 1.33 4.007 0.23s0.997-2.903-0.23-4.007zM12 20c-4.418 0-8-3.582-8-8s3.582-8 8-8 8 3.582 8 8-3.582 8-8 8z"/>
    </symbol>
</svg>