<svg width="50" height="56" viewBox="0 0 50 56" fill="none" xmlns="http://www.w3.org/2000/svg">
<path d="M23.973 22.6616C23.7822 22.5941 23.5878 22.524 23.3931 22.4518V18.922C24.037 19.1772 24.4893 19.5348 24.5071 19.549C24.9725 19.9306 25.6594 19.8644 26.0433 19.4003C26.4284 18.9348 26.3632 18.2455 25.8977 17.8603C25.8337 17.8074 24.8175 16.9818 23.3932 16.6337V16.0977C23.3932 15.4936 22.9034 15.0039 22.2995 15.0039C21.6955 15.0039 21.2057 15.4936 21.2057 16.0977V16.5831C21.0899 16.608 20.9736 16.6361 20.8565 16.6713C19.5991 17.0501 18.6914 18.1099 18.4282 19.5064C18.1726 20.8632 18.6147 22.2163 19.5546 22.9534C19.9835 23.2897 20.5062 23.5982 21.2058 23.9187V28.5446C20.7105 28.4751 20.3391 28.307 19.7474 27.9199C19.242 27.5891 18.5642 27.7308 18.2333 28.2364C17.9027 28.7419 18.0442 29.4197 18.5499 29.7505C19.5888 30.4301 20.3214 30.6688 21.2058 30.745V31.4251C21.2058 32.0292 21.6956 32.5189 22.2996 32.5189C22.9035 32.5189 23.3933 32.0292 23.3933 31.4251V30.6403C25.2125 30.1792 26.3785 28.6253 26.6361 27.0933C26.9672 25.1227 25.897 23.3418 23.973 22.6616ZM21.2057 21.4442C21.0973 21.3748 20.9962 21.3042 20.9045 21.2323C20.6093 21.0007 20.475 20.4576 20.5779 19.9116C20.6124 19.7285 20.752 19.1848 21.2057 18.8962V21.4442ZM24.4787 26.7309C24.3787 27.3251 24.0103 27.9497 23.3931 28.3025V24.7821C24.5802 25.2813 24.5506 26.3026 24.4787 26.7309Z" fill="#FF751D"/>
<path d="M48.7903 23.3685L41.8438 18.7812V1.09375C41.8438 0.489672 41.354 0 40.75 0H14.5C13.896 0 13.4062 0.489672 13.4062 1.09375V5.25H9.25C8.64603 5.25 8.15625 5.73967 8.15625 6.34375V18.7813L1.20973 23.3686C0.903265 23.571 0.71875 23.9139 0.71875 24.2812V54.9062C0.71875 55.5103 1.20853 56 1.8125 56H20.0781C20.6821 56 21.1719 55.5103 21.1719 54.9062C21.1719 54.3022 20.6821 53.8125 20.0781 53.8125H4.45314L20.3994 37.8663L24.3973 40.5065C24.58 40.6271 24.79 40.6875 25 40.6875C25.21 40.6875 25.42 40.6271 25.6028 40.5065L29.6007 37.8663L45.547 53.8125H29.9219C29.3179 53.8125 28.8281 54.3022 28.8281 54.9062C28.8281 55.5103 29.3179 56 29.9219 56H48.1875C48.7915 56 49.2812 55.5103 49.2812 54.9062V24.2812C49.2812 23.9139 49.0967 23.571 48.7903 23.3685ZM46.2027 24.2812L41.8438 27.1598V21.4027L46.2027 24.2812ZM15.5938 2.1875H39.6562V28.6044L36.5938 30.6269V6.34375C36.5938 5.73967 36.104 5.25 35.5 5.25H15.5938V2.1875ZM8.15625 21.4027V27.1598L3.79733 24.2812L8.15625 21.4027ZM2.90625 52.2657V26.3143L18.536 36.6359L2.90625 52.2657ZM25 38.283L10.3438 28.6043V7.4375H34.4062V32.0714L25 38.283ZM47.0938 26.3143V52.2657L31.464 36.6358L47.0938 26.3143Z" fill="#FF751D"/>
<path d="M25 53.8125C24.7123 53.8125 24.4302 53.9295 24.2267 54.133C24.0233 54.3364 23.9062 54.6186 23.9062 54.9062C23.9062 55.1939 24.0232 55.4761 24.2267 55.6795C24.4303 55.883 24.7123 56 25 56C25.2877 56 25.5698 55.883 25.7732 55.6795C25.9766 55.4761 26.0938 55.1939 26.0938 54.9062C26.0938 54.6186 25.9767 54.3364 25.7732 54.133C25.5698 53.9295 25.2877 53.8125 25 53.8125Z" fill="#FF751D"/>
</svg>
