<svg xmlns="http://www.w3.org/2000/svg"  viewBox="0 0 24 24" width="24px" height="24px"><path d="M7,9H5c-0.552,0-1,0.448-1,1v10c0,0.552,0.448,1,1,1h2c0.552,0,1-0.448,1-1V10C8,9.448,7.552,9,7,9z"/><circle cx="6" cy="5" r="2"/><path d="M16.458,9.984c-1.114,0-1.89,0.3-2.458,0.688V10c0-0.552-0.448-1-1-1h-2c-0.552,0-1,0.448-1,1v10	c0,0.552,0.448,1,1,1h2c0.552,0,1-0.448,1-1v-6.937c0.292-0.158,0.644-0.258,1.062-0.258C16.484,12.805,17,13.554,17,15v5	c0,0.552,0.448,1,1,1h1.997c0.553,0,1.001-0.449,1-1.003l-0.013-5.174C20.984,11.521,19.045,9.984,16.458,9.984z" opacity=".35"/></svg>